<?xml version="1.0" encoding="UTF-8" standalone="no"?>
<svg
   xmlns:dc="http://purl.org/dc/elements/1.1/"
   xmlns:cc="http://creativecommons.org/ns#"
   xmlns:rdf="http://www.w3.org/1999/02/22-rdf-syntax-ns#"
   xmlns:svg="http://www.w3.org/2000/svg"
   xmlns="http://www.w3.org/2000/svg"
   xmlns:sodipodi="http://sodipodi.sourceforge.net/DTD/sodipodi-0.dtd"
   xmlns:inkscape="http://www.inkscape.org/namespaces/inkscape"
   width="546.12097"
   height="500"
   viewBox="0 0 546.12097 500"
   fill="none"
   version="1.1"
   id="svg24"
   sodipodi:docname="hero.svg"
   inkscape:version="1.0.2-2 (e86c870879, 2021-01-15)"
   inkscape:export-filename="C:\Users\clean\Desktop\profileinsta.png"
   inkscape:export-xdpi="19.392"
   inkscape:export-ydpi="19.392">
  <metadata
     id="metadata30">
    <rdf:RDF>
      <cc:Work
         rdf:about="">
        <dc:format>image/svg+xml</dc:format>
        <dc:type
           rdf:resource="http://purl.org/dc/dcmitype/StillImage" />
        <dc:title />
      </cc:Work>
    </rdf:RDF>
  </metadata>
  <defs
     id="defs28">
    <inkscape:path-effect
       effect="powermask"
       id="path-effect4213"
       is_visible="true"
       lpeversion="1"
       uri="#mask-powermask-path-effect4213"
       invert="false"
       hide_mask="false"
       background="true"
       background_color="#ffffffff" />
    <inkscape:path-effect
       effect="powermask"
       id="path-effect4177"
       is_visible="true"
       lpeversion="1"
       uri="#mask-powermask-path-effect4177"
       invert="false"
       hide_mask="false"
       background="true"
       background_color="#ffffffff" />
    <inkscape:path-effect
       effect="powermask"
       id="path-effect4077"
       is_visible="true"
       lpeversion="1"
       uri="#mask-powermask-path-effect4077"
       invert="false"
       hide_mask="false"
       background="true"
       background_color="#ffffffff" />
    <rect
       x="344.83755"
       y="240"
       width="234.80145"
       height="269.45847"
       id="rect3260" />
    <inkscape:path-effect
       effect="powermask"
       id="path-effect920"
       is_visible="true"
       lpeversion="1"
       uri="#mask-powermask-path-effect920"
       invert="false"
       hide_mask="false"
       background="true"
       background_color="#ffffffff" />
    <inkscape:path-effect
       effect="powermask"
       id="path-effect910"
       is_visible="true"
       lpeversion="1"
       uri="#mask-powermask-path-effect910"
       invert="false"
       hide_mask="false"
       background="true"
       background_color="#ffffffff" />
    <mask
       maskUnits="userSpaceOnUse"
       id="mask-powermask-path-effect910">
      <path
         id="mask-powermask-path-effect910_box"
         style="fill:#ffffff;fill-opacity:1"
         d="m 528.778,246.245 h 69.885 v 69.885 h -69.885 z" />
      <path
         id="path908"
         d="m 532.483,235.709 c 0,1.77 -0.366,3.123 -1.098,4.061 -0.733,0.937 -1.805,1.406 -3.217,1.406 -1.395,0 -2.461,-0.46 -3.199,-1.38 -0.739,-0.92 -1.116,-2.238 -1.134,-3.955 v -2.356 c 0,-1.787 0.369,-3.143 1.107,-4.069 0.744,-0.926 1.814,-1.389 3.208,-1.389 1.395,0 2.461,0.46 3.2,1.38 0.738,0.914 1.116,2.23 1.133,3.947 z m -2.54,-2.584 c 0,-1.061 -0.146,-1.831 -0.439,-2.312 -0.287,-0.486 -0.738,-0.729 -1.354,-0.729 -0.597,0 -1.04,0.231 -1.327,0.694 -0.281,0.457 -0.43,1.175 -0.448,2.154 v 3.111 c 0,1.043 0.141,1.819 0.422,2.329 0.287,0.504 0.744,0.756 1.371,0.756 0.621,0 1.069,-0.243 1.345,-0.73 0.275,-0.486 0.419,-1.23 0.43,-2.232 z M 540.376,241 h -2.54 v -9.791 l -3.032,0.94 v -2.065 l 5.299,-1.898 h 0.273 z m 12.779,-5.291 c 0,1.77 -0.366,3.123 -1.098,4.061 -0.733,0.937 -1.805,1.406 -3.217,1.406 -1.395,0 -2.461,-0.46 -3.199,-1.38 -0.739,-0.92 -1.117,-2.238 -1.134,-3.955 v -2.356 c 0,-1.787 0.369,-3.143 1.107,-4.069 0.744,-0.926 1.814,-1.389 3.208,-1.389 1.395,0 2.461,0.46 3.199,1.38 0.739,0.914 1.117,2.23 1.134,3.947 z m -2.54,-2.584 c 0,-1.061 -0.146,-1.831 -0.439,-2.312 -0.287,-0.486 -0.739,-0.729 -1.354,-0.729 -0.597,0 -1.04,0.231 -1.327,0.694 -0.281,0.457 -0.431,1.175 -0.448,2.154 v 3.111 c 0,1.043 0.14,1.819 0.422,2.329 0.287,0.504 0.744,0.756 1.371,0.756 0.621,0 1.069,-0.243 1.345,-0.73 0.275,-0.486 0.418,-1.23 0.43,-2.232 z m 12.876,2.584 c 0,1.77 -0.366,3.123 -1.098,4.061 -0.733,0.937 -1.805,1.406 -3.217,1.406 -1.395,0 -2.461,-0.46 -3.199,-1.38 -0.739,-0.92 -1.117,-2.238 -1.134,-3.955 v -2.356 c 0,-1.787 0.369,-3.143 1.107,-4.069 0.744,-0.926 1.814,-1.389 3.208,-1.389 1.395,0 2.461,0.46 3.199,1.38 0.739,0.914 1.117,2.23 1.134,3.947 z m -2.54,-2.584 c 0,-1.061 -0.146,-1.831 -0.439,-2.312 -0.287,-0.486 -0.739,-0.729 -1.354,-0.729 -0.597,0 -1.04,0.231 -1.327,0.694 -0.281,0.457 -0.431,1.175 -0.448,2.154 v 3.111 c 0,1.043 0.14,1.819 0.422,2.329 0.287,0.504 0.744,0.756 1.371,0.756 0.621,0 1.069,-0.243 1.344,-0.73 0.276,-0.486 0.419,-1.23 0.431,-2.232 z m 12.876,2.584 c 0,1.77 -0.366,3.123 -1.099,4.061 -0.732,0.937 -1.804,1.406 -3.216,1.406 -1.395,0 -2.461,-0.46 -3.2,-1.38 -0.738,-0.92 -1.116,-2.238 -1.133,-3.955 v -2.356 c 0,-1.787 0.369,-3.143 1.107,-4.069 0.744,-0.926 1.814,-1.389 3.208,-1.389 1.395,0 2.461,0.46 3.199,1.38 0.739,0.914 1.117,2.23 1.134,3.947 z m -2.54,-2.584 c 0,-1.061 -0.146,-1.831 -0.439,-2.312 -0.287,-0.486 -0.739,-0.729 -1.354,-0.729 -0.598,0 -1.04,0.231 -1.327,0.694 -0.281,0.457 -0.431,1.175 -0.448,2.154 v 3.111 c 0,1.043 0.14,1.819 0.422,2.329 0.287,0.504 0.744,0.756 1.371,0.756 0.621,0 1.069,-0.243 1.344,-0.73 0.276,-0.486 0.419,-1.23 0.431,-2.232 z M 581.72,241 h -2.54 v -9.791 l -3.033,0.94 v -2.065 l 5.3,-1.898 h 0.273 z m 12.779,-5.291 c 0,1.77 -0.366,3.123 -1.099,4.061 -0.732,0.937 -1.804,1.406 -3.216,1.406 -1.395,0 -2.461,-0.46 -3.2,-1.38 -0.738,-0.92 -1.116,-2.238 -1.133,-3.955 v -2.356 c 0,-1.787 0.369,-3.143 1.107,-4.069 0.744,-0.926 1.813,-1.389 3.208,-1.389 1.395,0 2.461,0.46 3.199,1.38 0.738,0.914 1.116,2.23 1.134,3.947 z m -2.54,-2.584 c 0,-1.061 -0.147,-1.831 -0.439,-2.312 -0.288,-0.486 -0.739,-0.729 -1.354,-0.729 -0.598,0 -1.04,0.231 -1.327,0.694 -0.281,0.457 -0.431,1.175 -0.448,2.154 v 3.111 c 0,1.043 0.14,1.819 0.421,2.329 0.288,0.504 0.745,0.756 1.372,0.756 0.621,0 1.069,-0.243 1.344,-0.73 0.276,-0.486 0.419,-1.23 0.431,-2.232 z m 12.876,2.584 c 0,1.77 -0.366,3.123 -1.099,4.061 -0.732,0.937 -1.804,1.406 -3.216,1.406 -1.395,0 -2.461,-0.46 -3.2,-1.38 -0.738,-0.92 -1.116,-2.238 -1.134,-3.955 v -2.356 c 0,-1.787 0.37,-3.143 1.108,-4.069 0.744,-0.926 1.813,-1.389 3.208,-1.389 1.394,0 2.461,0.46 3.199,1.38 0.738,0.914 1.116,2.23 1.134,3.947 z m -2.54,-2.584 c 0,-1.061 -0.147,-1.831 -0.44,-2.312 -0.287,-0.486 -0.738,-0.729 -1.353,-0.729 -0.598,0 -1.04,0.231 -1.327,0.694 -0.281,0.457 -0.431,1.175 -0.448,2.154 v 3.111 c 0,1.043 0.14,1.819 0.421,2.329 0.288,0.504 0.745,0.756 1.372,0.756 0.621,0 1.069,-0.243 1.344,-0.73 0.276,-0.486 0.419,-1.23 0.431,-2.232 z m -69.812,23.584 c 0,1.77 -0.366,3.123 -1.098,4.061 -0.733,0.937 -1.805,1.406 -3.217,1.406 -1.395,0 -2.461,-0.46 -3.199,-1.38 -0.739,-0.92 -1.116,-2.238 -1.134,-3.955 v -2.356 c 0,-1.787 0.369,-3.143 1.107,-4.069 0.744,-0.926 1.814,-1.389 3.208,-1.389 1.395,0 2.461,0.46 3.2,1.38 0.738,0.914 1.116,2.23 1.133,3.947 z m -2.54,-2.584 c 0,-1.061 -0.146,-1.831 -0.439,-2.312 -0.287,-0.486 -0.738,-0.729 -1.354,-0.729 -0.597,0 -1.04,0.231 -1.327,0.694 -0.281,0.457 -0.43,1.175 -0.448,2.154 v 3.111 c 0,1.043 0.141,1.819 0.422,2.329 0.287,0.504 0.744,0.756 1.371,0.756 0.621,0 1.069,-0.243 1.345,-0.73 0.275,-0.486 0.419,-1.23 0.43,-2.232 z M 540.376,262 h -2.54 v -9.791 l -3.032,0.94 v -2.065 l 5.299,-1.898 h 0.273 z m 10.336,0 h -2.54 v -9.791 l -3.032,0.94 v -2.065 l 5.299,-1.898 h 0.273 z m 12.779,-5.291 c 0,1.77 -0.366,3.123 -1.098,4.061 -0.733,0.937 -1.805,1.406 -3.217,1.406 -1.395,0 -2.461,-0.46 -3.199,-1.38 -0.739,-0.92 -1.117,-2.238 -1.134,-3.955 v -2.356 c 0,-1.787 0.369,-3.143 1.107,-4.069 0.744,-0.926 1.814,-1.389 3.208,-1.389 1.395,0 2.461,0.46 3.199,1.38 0.739,0.914 1.117,2.23 1.134,3.947 z m -2.54,-2.584 c 0,-1.061 -0.146,-1.831 -0.439,-2.312 -0.287,-0.486 -0.739,-0.729 -1.354,-0.729 -0.597,0 -1.04,0.231 -1.327,0.694 -0.281,0.457 -0.431,1.175 -0.448,2.154 v 3.111 c 0,1.043 0.14,1.819 0.422,2.329 0.287,0.504 0.744,0.756 1.371,0.756 0.621,0 1.069,-0.243 1.344,-0.73 0.276,-0.486 0.419,-1.23 0.431,-2.232 z m 12.876,2.584 c 0,1.77 -0.366,3.123 -1.099,4.061 -0.732,0.937 -1.804,1.406 -3.216,1.406 -1.395,0 -2.461,-0.46 -3.2,-1.38 -0.738,-0.92 -1.116,-2.238 -1.133,-3.955 v -2.356 c 0,-1.787 0.369,-3.143 1.107,-4.069 0.744,-0.926 1.814,-1.389 3.208,-1.389 1.395,0 2.461,0.46 3.199,1.38 0.739,0.914 1.117,2.23 1.134,3.947 z m -2.54,-2.584 c 0,-1.061 -0.146,-1.831 -0.439,-2.312 -0.287,-0.486 -0.739,-0.729 -1.354,-0.729 -0.598,0 -1.04,0.231 -1.327,0.694 -0.281,0.457 -0.431,1.175 -0.448,2.154 v 3.111 c 0,1.043 0.14,1.819 0.422,2.329 0.287,0.504 0.744,0.756 1.371,0.756 0.621,0 1.069,-0.243 1.344,-0.73 0.276,-0.486 0.419,-1.23 0.431,-2.232 z m 12.876,2.584 c 0,1.77 -0.366,3.123 -1.099,4.061 -0.732,0.937 -1.804,1.406 -3.216,1.406 -1.395,0 -2.461,-0.46 -3.2,-1.38 -0.738,-0.92 -1.116,-2.238 -1.133,-3.955 v -2.356 c 0,-1.787 0.369,-3.143 1.107,-4.069 0.744,-0.926 1.814,-1.389 3.208,-1.389 1.395,0 2.461,0.46 3.199,1.38 0.739,0.914 1.116,2.23 1.134,3.947 z m -2.54,-2.584 c 0,-1.061 -0.146,-1.831 -0.439,-2.312 -0.288,-0.486 -0.739,-0.729 -1.354,-0.729 -0.598,0 -1.04,0.231 -1.327,0.694 -0.281,0.457 -0.431,1.175 -0.448,2.154 v 3.111 c 0,1.043 0.14,1.819 0.422,2.329 0.287,0.504 0.744,0.756 1.371,0.756 0.621,0 1.069,-0.243 1.344,-0.73 0.276,-0.486 0.419,-1.23 0.431,-2.232 z m 12.876,2.584 c 0,1.77 -0.366,3.123 -1.099,4.061 -0.732,0.937 -1.804,1.406 -3.216,1.406 -1.395,0 -2.461,-0.46 -3.2,-1.38 -0.738,-0.92 -1.116,-2.238 -1.133,-3.955 v -2.356 c 0,-1.787 0.369,-3.143 1.107,-4.069 0.744,-0.926 1.813,-1.389 3.208,-1.389 1.395,0 2.461,0.46 3.199,1.38 0.738,0.914 1.116,2.23 1.134,3.947 z m -2.54,-2.584 c 0,-1.061 -0.147,-1.831 -0.439,-2.312 -0.288,-0.486 -0.739,-0.729 -1.354,-0.729 -0.598,0 -1.04,0.231 -1.327,0.694 -0.281,0.457 -0.431,1.175 -0.448,2.154 v 3.111 c 0,1.043 0.14,1.819 0.421,2.329 0.288,0.504 0.745,0.756 1.372,0.756 0.621,0 1.069,-0.243 1.344,-0.73 0.276,-0.486 0.419,-1.23 0.431,-2.232 z M 602.392,262 h -2.54 v -9.791 l -3.033,0.94 v -2.065 l 5.3,-1.898 h 0.273 z m -69.909,15.709 c 0,1.77 -0.366,3.123 -1.098,4.061 -0.733,0.937 -1.805,1.406 -3.217,1.406 -1.395,0 -2.461,-0.46 -3.199,-1.38 -0.739,-0.92 -1.116,-2.238 -1.134,-3.955 v -2.356 c 0,-1.787 0.369,-3.143 1.107,-4.069 0.744,-0.926 1.814,-1.389 3.208,-1.389 1.395,0 2.461,0.46 3.2,1.38 0.738,0.914 1.116,2.23 1.133,3.947 z m -2.54,-2.584 c 0,-1.061 -0.146,-1.831 -0.439,-2.312 -0.287,-0.486 -0.738,-0.729 -1.354,-0.729 -0.597,0 -1.04,0.231 -1.327,0.694 -0.281,0.457 -0.43,1.175 -0.448,2.154 v 3.111 c 0,1.043 0.141,1.819 0.422,2.329 0.287,0.504 0.744,0.756 1.371,0.756 0.621,0 1.069,-0.243 1.345,-0.73 0.275,-0.486 0.419,-1.23 0.43,-2.232 z M 540.376,283 h -2.54 v -9.791 l -3.032,0.94 v -2.065 l 5.299,-1.898 h 0.273 z m 10.336,0 h -2.54 v -9.791 l -3.032,0.94 v -2.065 l 5.299,-1.898 h 0.273 z m 12.779,-5.291 c 0,1.77 -0.366,3.123 -1.098,4.061 -0.733,0.937 -1.805,1.406 -3.217,1.406 -1.395,0 -2.461,-0.46 -3.199,-1.38 -0.739,-0.92 -1.117,-2.238 -1.134,-3.955 v -2.356 c 0,-1.787 0.369,-3.143 1.107,-4.069 0.744,-0.926 1.814,-1.389 3.208,-1.389 1.395,0 2.461,0.46 3.199,1.38 0.739,0.914 1.117,2.23 1.134,3.947 z m -2.54,-2.584 c 0,-1.061 -0.146,-1.831 -0.439,-2.312 -0.287,-0.486 -0.739,-0.729 -1.354,-0.729 -0.597,0 -1.04,0.231 -1.327,0.694 -0.281,0.457 -0.431,1.175 -0.448,2.154 v 3.111 c 0,1.043 0.14,1.819 0.422,2.329 0.287,0.504 0.744,0.756 1.371,0.756 0.621,0 1.069,-0.243 1.344,-0.73 0.276,-0.486 0.419,-1.23 0.431,-2.232 z M 571.384,283 h -2.54 v -9.791 l -3.033,0.94 v -2.065 l 5.3,-1.898 h 0.273 z m 10.336,0 h -2.54 v -9.791 l -3.033,0.94 v -2.065 l 5.3,-1.898 h 0.273 z m 10.336,0 h -2.54 v -9.791 l -3.033,0.94 v -2.065 l 5.3,-1.898 h 0.273 z m 12.779,-5.291 c 0,1.77 -0.366,3.123 -1.099,4.061 -0.732,0.937 -1.804,1.406 -3.216,1.406 -1.395,0 -2.461,-0.46 -3.2,-1.38 -0.738,-0.92 -1.116,-2.238 -1.134,-3.955 v -2.356 c 0,-1.787 0.37,-3.143 1.108,-4.069 0.744,-0.926 1.813,-1.389 3.208,-1.389 1.394,0 2.461,0.46 3.199,1.38 0.738,0.914 1.116,2.23 1.134,3.947 z m -2.54,-2.584 c 0,-1.061 -0.147,-1.831 -0.44,-2.312 -0.287,-0.486 -0.738,-0.729 -1.353,-0.729 -0.598,0 -1.04,0.231 -1.327,0.694 -0.281,0.457 -0.431,1.175 -0.448,2.154 v 3.111 c 0,1.043 0.14,1.819 0.421,2.329 0.288,0.504 0.745,0.756 1.372,0.756 0.621,0 1.069,-0.243 1.344,-0.73 0.276,-0.486 0.419,-1.23 0.431,-2.232 z m -69.812,23.584 c 0,1.77 -0.366,3.123 -1.098,4.061 -0.733,0.937 -1.805,1.406 -3.217,1.406 -1.395,0 -2.461,-0.46 -3.199,-1.38 -0.739,-0.92 -1.116,-2.238 -1.134,-3.955 v -2.356 c 0,-1.787 0.369,-3.143 1.107,-4.069 0.744,-0.926 1.814,-1.389 3.208,-1.389 1.395,0 2.461,0.46 3.2,1.38 0.738,0.914 1.116,2.23 1.133,3.947 z m -2.54,-2.584 c 0,-1.061 -0.146,-1.831 -0.439,-2.312 -0.287,-0.486 -0.738,-0.729 -1.354,-0.729 -0.597,0 -1.04,0.231 -1.327,0.694 -0.281,0.457 -0.43,1.175 -0.448,2.154 v 3.111 c 0,1.043 0.141,1.819 0.422,2.329 0.287,0.504 0.744,0.756 1.371,0.756 0.621,0 1.069,-0.243 1.345,-0.73 0.275,-0.486 0.419,-1.23 0.43,-2.232 z M 540.376,304 h -2.54 v -9.791 l -3.032,0.94 v -2.065 l 5.299,-1.898 h 0.273 z m 10.336,0 h -2.54 v -9.791 l -3.032,0.94 v -2.065 l 5.299,-1.898 h 0.273 z m 12.779,-5.291 c 0,1.77 -0.366,3.123 -1.098,4.061 -0.733,0.937 -1.805,1.406 -3.217,1.406 -1.395,0 -2.461,-0.46 -3.199,-1.38 -0.739,-0.92 -1.117,-2.238 -1.134,-3.955 v -2.356 c 0,-1.787 0.369,-3.143 1.107,-4.069 0.744,-0.926 1.814,-1.389 3.208,-1.389 1.395,0 2.461,0.46 3.199,1.38 0.739,0.914 1.117,2.23 1.134,3.947 z m -2.54,-2.584 c 0,-1.061 -0.146,-1.831 -0.439,-2.312 -0.287,-0.486 -0.739,-0.729 -1.354,-0.729 -0.597,0 -1.04,0.231 -1.327,0.694 -0.281,0.457 -0.431,1.175 -0.448,2.154 v 3.111 c 0,1.043 0.14,1.819 0.422,2.329 0.287,0.504 0.744,0.756 1.371,0.756 0.621,0 1.069,-0.243 1.344,-0.73 0.276,-0.486 0.419,-1.23 0.431,-2.232 z M 571.384,304 h -2.54 v -9.791 l -3.033,0.94 v -2.065 l 5.3,-1.898 h 0.273 z m 12.779,-5.291 c 0,1.77 -0.366,3.123 -1.099,4.061 -0.732,0.937 -1.804,1.406 -3.216,1.406 -1.395,0 -2.461,-0.46 -3.2,-1.38 -0.738,-0.92 -1.116,-2.238 -1.133,-3.955 v -2.356 c 0,-1.787 0.369,-3.143 1.107,-4.069 0.744,-0.926 1.814,-1.389 3.208,-1.389 1.395,0 2.461,0.46 3.199,1.38 0.739,0.914 1.116,2.23 1.134,3.947 z m -2.54,-2.584 c 0,-1.061 -0.146,-1.831 -0.439,-2.312 -0.288,-0.486 -0.739,-0.729 -1.354,-0.729 -0.598,0 -1.04,0.231 -1.327,0.694 -0.281,0.457 -0.431,1.175 -0.448,2.154 v 3.111 c 0,1.043 0.14,1.819 0.422,2.329 0.287,0.504 0.744,0.756 1.371,0.756 0.621,0 1.069,-0.243 1.344,-0.73 0.276,-0.486 0.419,-1.23 0.431,-2.232 z m 12.876,2.584 c 0,1.77 -0.366,3.123 -1.099,4.061 -0.732,0.937 -1.804,1.406 -3.216,1.406 -1.395,0 -2.461,-0.46 -3.2,-1.38 -0.738,-0.92 -1.116,-2.238 -1.133,-3.955 v -2.356 c 0,-1.787 0.369,-3.143 1.107,-4.069 0.744,-0.926 1.813,-1.389 3.208,-1.389 1.395,0 2.461,0.46 3.199,1.38 0.738,0.914 1.116,2.23 1.134,3.947 z m -2.54,-2.584 c 0,-1.061 -0.147,-1.831 -0.439,-2.312 -0.288,-0.486 -0.739,-0.729 -1.354,-0.729 -0.598,0 -1.04,0.231 -1.327,0.694 -0.281,0.457 -0.431,1.175 -0.448,2.154 v 3.111 c 0,1.043 0.14,1.819 0.421,2.329 0.288,0.504 0.745,0.756 1.372,0.756 0.621,0 1.069,-0.243 1.344,-0.73 0.276,-0.486 0.419,-1.23 0.431,-2.232 z M 602.392,304 h -2.54 v -9.791 l -3.033,0.94 v -2.065 l 5.3,-1.898 h 0.273 z m -69.909,15.709 c 0,1.77 -0.366,3.123 -1.098,4.061 -0.733,0.937 -1.805,1.406 -3.217,1.406 -1.395,0 -2.461,-0.46 -3.199,-1.38 -0.739,-0.92 -1.116,-2.238 -1.134,-3.955 v -2.356 c 0,-1.787 0.369,-3.143 1.107,-4.069 0.744,-0.926 1.814,-1.389 3.208,-1.389 1.395,0 2.461,0.46 3.2,1.38 0.738,0.914 1.116,2.23 1.133,3.947 z m -2.54,-2.584 c 0,-1.061 -0.146,-1.831 -0.439,-2.312 -0.287,-0.486 -0.738,-0.729 -1.354,-0.729 -0.597,0 -1.04,0.231 -1.327,0.694 -0.281,0.457 -0.43,1.175 -0.448,2.154 v 3.111 c 0,1.043 0.141,1.819 0.422,2.329 0.287,0.504 0.744,0.756 1.371,0.756 0.621,0 1.069,-0.243 1.345,-0.73 0.275,-0.486 0.419,-1.23 0.43,-2.232 z M 540.376,325 h -2.54 v -9.791 l -3.032,0.94 v -2.065 l 5.299,-1.898 h 0.273 z m 10.336,0 h -2.54 v -9.791 l -3.032,0.94 v -2.065 l 5.299,-1.898 h 0.273 z m 12.779,-5.291 c 0,1.77 -0.366,3.123 -1.098,4.061 -0.733,0.937 -1.805,1.406 -3.217,1.406 -1.395,0 -2.461,-0.46 -3.199,-1.38 -0.739,-0.92 -1.117,-2.238 -1.134,-3.955 v -2.356 c 0,-1.787 0.369,-3.143 1.107,-4.069 0.744,-0.926 1.814,-1.389 3.208,-1.389 1.395,0 2.461,0.46 3.199,1.38 0.739,0.914 1.117,2.23 1.134,3.947 z m -2.54,-2.584 c 0,-1.061 -0.146,-1.831 -0.439,-2.312 -0.287,-0.486 -0.739,-0.729 -1.354,-0.729 -0.597,0 -1.04,0.231 -1.327,0.694 -0.281,0.457 -0.431,1.175 -0.448,2.154 v 3.111 c 0,1.043 0.14,1.819 0.422,2.329 0.287,0.504 0.744,0.756 1.371,0.756 0.621,0 1.069,-0.243 1.344,-0.73 0.276,-0.486 0.419,-1.23 0.431,-2.232 z m 12.876,2.584 c 0,1.77 -0.366,3.123 -1.099,4.061 -0.732,0.937 -1.804,1.406 -3.216,1.406 -1.395,0 -2.461,-0.46 -3.2,-1.38 -0.738,-0.92 -1.116,-2.238 -1.133,-3.955 v -2.356 c 0,-1.787 0.369,-3.143 1.107,-4.069 0.744,-0.926 1.814,-1.389 3.208,-1.389 1.395,0 2.461,0.46 3.199,1.38 0.739,0.914 1.117,2.23 1.134,3.947 z m -2.54,-2.584 c 0,-1.061 -0.146,-1.831 -0.439,-2.312 -0.287,-0.486 -0.739,-0.729 -1.354,-0.729 -0.598,0 -1.04,0.231 -1.327,0.694 -0.281,0.457 -0.431,1.175 -0.448,2.154 v 3.111 c 0,1.043 0.14,1.819 0.422,2.329 0.287,0.504 0.744,0.756 1.371,0.756 0.621,0 1.069,-0.243 1.344,-0.73 0.276,-0.486 0.419,-1.23 0.431,-2.232 z M 581.72,325 h -2.54 v -9.791 l -3.033,0.94 v -2.065 l 5.3,-1.898 h 0.273 z m 12.779,-5.291 c 0,1.77 -0.366,3.123 -1.099,4.061 -0.732,0.937 -1.804,1.406 -3.216,1.406 -1.395,0 -2.461,-0.46 -3.2,-1.38 -0.738,-0.92 -1.116,-2.238 -1.133,-3.955 v -2.356 c 0,-1.787 0.369,-3.143 1.107,-4.069 0.744,-0.926 1.813,-1.389 3.208,-1.389 1.395,0 2.461,0.46 3.199,1.38 0.738,0.914 1.116,2.23 1.134,3.947 z m -2.54,-2.584 c 0,-1.061 -0.147,-1.831 -0.439,-2.312 -0.288,-0.486 -0.739,-0.729 -1.354,-0.729 -0.598,0 -1.04,0.231 -1.327,0.694 -0.281,0.457 -0.431,1.175 -0.448,2.154 v 3.111 c 0,1.043 0.14,1.819 0.421,2.329 0.288,0.504 0.745,0.756 1.372,0.756 0.621,0 1.069,-0.243 1.344,-0.73 0.276,-0.486 0.419,-1.23 0.431,-2.232 z M 602.392,325 h -2.54 v -9.791 l -3.033,0.94 v -2.065 l 5.3,-1.898 h 0.273 z m -69.909,15.709 c 0,1.77 -0.366,3.123 -1.098,4.061 -0.733,0.937 -1.805,1.406 -3.217,1.406 -1.395,0 -2.461,-0.46 -3.199,-1.38 -0.739,-0.92 -1.116,-2.238 -1.134,-3.955 v -2.356 c 0,-1.787 0.369,-3.143 1.107,-4.069 0.744,-0.926 1.814,-1.389 3.208,-1.389 1.395,0 2.461,0.46 3.2,1.38 0.738,0.914 1.116,2.23 1.133,3.947 z m -2.54,-2.584 c 0,-1.061 -0.146,-1.831 -0.439,-2.312 -0.287,-0.486 -0.738,-0.729 -1.354,-0.729 -0.597,0 -1.04,0.231 -1.327,0.694 -0.281,0.457 -0.43,1.175 -0.448,2.154 v 3.111 c 0,1.043 0.141,1.819 0.422,2.329 0.287,0.504 0.744,0.756 1.371,0.756 0.621,0 1.069,-0.243 1.345,-0.73 0.275,-0.486 0.419,-1.23 0.43,-2.232 z M 540.376,346 h -2.54 v -9.791 l -3.032,0.94 v -2.065 l 5.299,-1.898 h 0.273 z m 10.336,0 h -2.54 v -9.791 l -3.032,0.94 v -2.065 l 5.299,-1.898 h 0.273 z m 12.779,-5.291 c 0,1.77 -0.366,3.123 -1.098,4.061 -0.733,0.937 -1.805,1.406 -3.217,1.406 -1.395,0 -2.461,-0.46 -3.199,-1.38 -0.739,-0.92 -1.117,-2.238 -1.134,-3.955 v -2.356 c 0,-1.787 0.369,-3.143 1.107,-4.069 0.744,-0.926 1.814,-1.389 3.208,-1.389 1.395,0 2.461,0.46 3.199,1.38 0.739,0.914 1.117,2.23 1.134,3.947 z m -2.54,-2.584 c 0,-1.061 -0.146,-1.831 -0.439,-2.312 -0.287,-0.486 -0.739,-0.729 -1.354,-0.729 -0.597,0 -1.04,0.231 -1.327,0.694 -0.281,0.457 -0.431,1.175 -0.448,2.154 v 3.111 c 0,1.043 0.14,1.819 0.422,2.329 0.287,0.504 0.744,0.756 1.371,0.756 0.621,0 1.069,-0.243 1.344,-0.73 0.276,-0.486 0.419,-1.23 0.431,-2.232 z M 571.384,346 h -2.54 v -9.791 l -3.033,0.94 v -2.065 l 5.3,-1.898 h 0.273 z m 10.336,0 h -2.54 v -9.791 l -3.033,0.94 v -2.065 l 5.3,-1.898 h 0.273 z m 12.779,-5.291 c 0,1.77 -0.366,3.123 -1.099,4.061 -0.732,0.937 -1.804,1.406 -3.216,1.406 -1.395,0 -2.461,-0.46 -3.2,-1.38 -0.738,-0.92 -1.116,-2.238 -1.133,-3.955 v -2.356 c 0,-1.787 0.369,-3.143 1.107,-4.069 0.744,-0.926 1.813,-1.389 3.208,-1.389 1.395,0 2.461,0.46 3.199,1.38 0.738,0.914 1.116,2.23 1.134,3.947 z m -2.54,-2.584 c 0,-1.061 -0.147,-1.831 -0.439,-2.312 -0.288,-0.486 -0.739,-0.729 -1.354,-0.729 -0.598,0 -1.04,0.231 -1.327,0.694 -0.281,0.457 -0.431,1.175 -0.448,2.154 v 3.111 c 0,1.043 0.14,1.819 0.421,2.329 0.288,0.504 0.745,0.756 1.372,0.756 0.621,0 1.069,-0.243 1.344,-0.73 0.276,-0.486 0.419,-1.23 0.431,-2.232 z m 12.876,2.584 c 0,1.77 -0.366,3.123 -1.099,4.061 -0.732,0.937 -1.804,1.406 -3.216,1.406 -1.395,0 -2.461,-0.46 -3.2,-1.38 -0.738,-0.92 -1.116,-2.238 -1.134,-3.955 v -2.356 c 0,-1.787 0.37,-3.143 1.108,-4.069 0.744,-0.926 1.813,-1.389 3.208,-1.389 1.394,0 2.461,0.46 3.199,1.38 0.738,0.914 1.116,2.23 1.134,3.947 z m -2.54,-2.584 c 0,-1.061 -0.147,-1.831 -0.44,-2.312 -0.287,-0.486 -0.738,-0.729 -1.353,-0.729 -0.598,0 -1.04,0.231 -1.327,0.694 -0.281,0.457 -0.431,1.175 -0.448,2.154 v 3.111 c 0,1.043 0.14,1.819 0.421,2.329 0.288,0.504 0.745,0.756 1.372,0.756 0.621,0 1.069,-0.243 1.344,-0.73 0.276,-0.486 0.419,-1.23 0.431,-2.232 z"
         fill="#0e0f19"
         style="" />
    </mask>
    <filter
       id="mask-powermask-path-effect910_inverse"
       inkscape:label="filtermask-powermask-path-effect910"
       style="color-interpolation-filters:sRGB"
       height="100"
       width="100"
       x="-50"
       y="-50">
      <feColorMatrix
         id="mask-powermask-path-effect910_primitive1"
         values="1"
         type="saturate"
         result="fbSourceGraphic" />
      <feColorMatrix
         id="mask-powermask-path-effect910_primitive2"
         values="-1 0 0 0 1 0 -1 0 0 1 0 0 -1 0 1 0 0 0 1 0 "
         in="fbSourceGraphic" />
    </filter>
    <mask
       maskUnits="userSpaceOnUse"
       id="mask-powermask-path-effect920">
      <path
         id="mask-powermask-path-effect920_box"
         style="fill:#ffffff;fill-opacity:1"
         d="m 658.367,246.245 h 69.886 v 69.885 h -69.886 z" />
      <path
         id="path918"
         d="m 665.483,235.709 c 0,1.77 -0.366,3.123 -1.098,4.061 -0.733,0.937 -1.805,1.406 -3.217,1.406 -1.395,0 -2.461,-0.46 -3.199,-1.38 -0.739,-0.92 -1.116,-2.238 -1.134,-3.955 v -2.356 c 0,-1.787 0.369,-3.143 1.107,-4.069 0.744,-0.926 1.814,-1.389 3.208,-1.389 1.395,0 2.461,0.46 3.2,1.38 0.738,0.914 1.116,2.23 1.133,3.947 z m -2.54,-2.584 c 0,-1.061 -0.146,-1.831 -0.439,-2.312 -0.287,-0.486 -0.738,-0.729 -1.354,-0.729 -0.597,0 -1.04,0.231 -1.327,0.694 -0.281,0.457 -0.43,1.175 -0.448,2.154 v 3.111 c 0,1.043 0.141,1.819 0.422,2.329 0.287,0.504 0.744,0.756 1.371,0.756 0.621,0 1.069,-0.243 1.345,-0.73 0.275,-0.486 0.419,-1.23 0.43,-2.232 z M 673.376,241 h -2.54 v -9.791 l -3.032,0.94 v -2.065 l 5.299,-1.898 h 0.273 z m 12.779,-5.291 c 0,1.77 -0.366,3.123 -1.098,4.061 -0.733,0.937 -1.805,1.406 -3.217,1.406 -1.395,0 -2.461,-0.46 -3.199,-1.38 -0.739,-0.92 -1.117,-2.238 -1.134,-3.955 v -2.356 c 0,-1.787 0.369,-3.143 1.107,-4.069 0.744,-0.926 1.814,-1.389 3.208,-1.389 1.395,0 2.461,0.46 3.199,1.38 0.739,0.914 1.117,2.23 1.134,3.947 z m -2.54,-2.584 c 0,-1.061 -0.146,-1.831 -0.439,-2.312 -0.287,-0.486 -0.739,-0.729 -1.354,-0.729 -0.597,0 -1.04,0.231 -1.327,0.694 -0.281,0.457 -0.431,1.175 -0.448,2.154 v 3.111 c 0,1.043 0.14,1.819 0.422,2.329 0.287,0.504 0.744,0.756 1.371,0.756 0.621,0 1.069,-0.243 1.345,-0.73 0.275,-0.486 0.418,-1.23 0.43,-2.232 z m 12.876,2.584 c 0,1.77 -0.366,3.123 -1.098,4.061 -0.733,0.937 -1.805,1.406 -3.217,1.406 -1.395,0 -2.461,-0.46 -3.199,-1.38 -0.739,-0.92 -1.117,-2.238 -1.134,-3.955 v -2.356 c 0,-1.787 0.369,-3.143 1.107,-4.069 0.744,-0.926 1.814,-1.389 3.208,-1.389 1.395,0 2.461,0.46 3.199,1.38 0.739,0.914 1.117,2.23 1.134,3.947 z m -2.54,-2.584 c 0,-1.061 -0.146,-1.831 -0.439,-2.312 -0.287,-0.486 -0.739,-0.729 -1.354,-0.729 -0.597,0 -1.04,0.231 -1.327,0.694 -0.281,0.457 -0.431,1.175 -0.448,2.154 v 3.111 c 0,1.043 0.14,1.819 0.422,2.329 0.287,0.504 0.744,0.756 1.371,0.756 0.621,0 1.069,-0.243 1.344,-0.73 0.276,-0.486 0.419,-1.23 0.431,-2.232 z m 12.876,2.584 c 0,1.77 -0.366,3.123 -1.099,4.061 -0.732,0.937 -1.804,1.406 -3.216,1.406 -1.395,0 -2.461,-0.46 -3.2,-1.38 -0.738,-0.92 -1.116,-2.238 -1.133,-3.955 v -2.356 c 0,-1.787 0.369,-3.143 1.107,-4.069 0.744,-0.926 1.814,-1.389 3.208,-1.389 1.395,0 2.461,0.46 3.199,1.38 0.739,0.914 1.117,2.23 1.134,3.947 z m -2.54,-2.584 c 0,-1.061 -0.146,-1.831 -0.439,-2.312 -0.287,-0.486 -0.739,-0.729 -1.354,-0.729 -0.598,0 -1.04,0.231 -1.327,0.694 -0.281,0.457 -0.431,1.175 -0.448,2.154 v 3.111 c 0,1.043 0.14,1.819 0.422,2.329 0.287,0.504 0.744,0.756 1.371,0.756 0.621,0 1.069,-0.243 1.344,-0.73 0.276,-0.486 0.419,-1.23 0.431,-2.232 z M 714.72,241 h -2.54 v -9.791 l -3.033,0.94 v -2.065 l 5.3,-1.898 h 0.273 z m 12.779,-5.291 c 0,1.77 -0.366,3.123 -1.099,4.061 -0.732,0.937 -1.804,1.406 -3.216,1.406 -1.395,0 -2.461,-0.46 -3.2,-1.38 -0.738,-0.92 -1.116,-2.238 -1.133,-3.955 v -2.356 c 0,-1.787 0.369,-3.143 1.107,-4.069 0.744,-0.926 1.813,-1.389 3.208,-1.389 1.395,0 2.461,0.46 3.199,1.38 0.738,0.914 1.116,2.23 1.134,3.947 z m -2.54,-2.584 c 0,-1.061 -0.147,-1.831 -0.439,-2.312 -0.288,-0.486 -0.739,-0.729 -1.354,-0.729 -0.598,0 -1.04,0.231 -1.327,0.694 -0.281,0.457 -0.431,1.175 -0.448,2.154 v 3.111 c 0,1.043 0.14,1.819 0.421,2.329 0.288,0.504 0.745,0.756 1.372,0.756 0.621,0 1.069,-0.243 1.344,-0.73 0.276,-0.486 0.419,-1.23 0.431,-2.232 z m 12.876,2.584 c 0,1.77 -0.366,3.123 -1.099,4.061 -0.732,0.937 -1.804,1.406 -3.216,1.406 -1.395,0 -2.461,-0.46 -3.2,-1.38 -0.738,-0.92 -1.116,-2.238 -1.134,-3.955 v -2.356 c 0,-1.787 0.37,-3.143 1.108,-4.069 0.744,-0.926 1.813,-1.389 3.208,-1.389 1.394,0 2.461,0.46 3.199,1.38 0.738,0.914 1.116,2.23 1.134,3.947 z m -2.54,-2.584 c 0,-1.061 -0.147,-1.831 -0.44,-2.312 -0.287,-0.486 -0.738,-0.729 -1.353,-0.729 -0.598,0 -1.04,0.231 -1.327,0.694 -0.281,0.457 -0.431,1.175 -0.448,2.154 v 3.111 c 0,1.043 0.14,1.819 0.421,2.329 0.288,0.504 0.745,0.756 1.372,0.756 0.621,0 1.069,-0.243 1.344,-0.73 0.276,-0.486 0.419,-1.23 0.431,-2.232 z m -69.812,23.584 c 0,1.77 -0.366,3.123 -1.098,4.061 -0.733,0.937 -1.805,1.406 -3.217,1.406 -1.395,0 -2.461,-0.46 -3.199,-1.38 -0.739,-0.92 -1.116,-2.238 -1.134,-3.955 v -2.356 c 0,-1.787 0.369,-3.143 1.107,-4.069 0.744,-0.926 1.814,-1.389 3.208,-1.389 1.395,0 2.461,0.46 3.2,1.38 0.738,0.914 1.116,2.23 1.133,3.947 z m -2.54,-2.584 c 0,-1.061 -0.146,-1.831 -0.439,-2.312 -0.287,-0.486 -0.738,-0.729 -1.354,-0.729 -0.597,0 -1.04,0.231 -1.327,0.694 -0.281,0.457 -0.43,1.175 -0.448,2.154 v 3.111 c 0,1.043 0.141,1.819 0.422,2.329 0.287,0.504 0.744,0.756 1.371,0.756 0.621,0 1.069,-0.243 1.345,-0.73 0.275,-0.486 0.419,-1.23 0.43,-2.232 z M 673.376,262 h -2.54 v -9.791 l -3.032,0.94 v -2.065 l 5.299,-1.898 h 0.273 z m 10.336,0 h -2.54 v -9.791 l -3.032,0.94 v -2.065 l 5.299,-1.898 h 0.273 z m 12.779,-5.291 c 0,1.77 -0.366,3.123 -1.098,4.061 -0.733,0.937 -1.805,1.406 -3.217,1.406 -1.395,0 -2.461,-0.46 -3.199,-1.38 -0.739,-0.92 -1.117,-2.238 -1.134,-3.955 v -2.356 c 0,-1.787 0.369,-3.143 1.107,-4.069 0.744,-0.926 1.814,-1.389 3.208,-1.389 1.395,0 2.461,0.46 3.199,1.38 0.739,0.914 1.117,2.23 1.134,3.947 z m -2.54,-2.584 c 0,-1.061 -0.146,-1.831 -0.439,-2.312 -0.287,-0.486 -0.739,-0.729 -1.354,-0.729 -0.597,0 -1.04,0.231 -1.327,0.694 -0.281,0.457 -0.431,1.175 -0.448,2.154 v 3.111 c 0,1.043 0.14,1.819 0.422,2.329 0.287,0.504 0.744,0.756 1.371,0.756 0.621,0 1.069,-0.243 1.344,-0.73 0.276,-0.486 0.419,-1.23 0.431,-2.232 z m 12.876,2.584 c 0,1.77 -0.366,3.123 -1.099,4.061 -0.732,0.937 -1.804,1.406 -3.216,1.406 -1.395,0 -2.461,-0.46 -3.2,-1.38 -0.738,-0.92 -1.116,-2.238 -1.133,-3.955 v -2.356 c 0,-1.787 0.369,-3.143 1.107,-4.069 0.744,-0.926 1.814,-1.389 3.208,-1.389 1.395,0 2.461,0.46 3.199,1.38 0.739,0.914 1.117,2.23 1.134,3.947 z m -2.54,-2.584 c 0,-1.061 -0.146,-1.831 -0.439,-2.312 -0.287,-0.486 -0.739,-0.729 -1.354,-0.729 -0.598,0 -1.04,0.231 -1.327,0.694 -0.281,0.457 -0.431,1.175 -0.448,2.154 v 3.111 c 0,1.043 0.14,1.819 0.422,2.329 0.287,0.504 0.744,0.756 1.371,0.756 0.621,0 1.069,-0.243 1.344,-0.73 0.276,-0.486 0.419,-1.23 0.431,-2.232 z m 12.876,2.584 c 0,1.77 -0.366,3.123 -1.099,4.061 -0.732,0.937 -1.804,1.406 -3.216,1.406 -1.395,0 -2.461,-0.46 -3.2,-1.38 -0.738,-0.92 -1.116,-2.238 -1.133,-3.955 v -2.356 c 0,-1.787 0.369,-3.143 1.107,-4.069 0.744,-0.926 1.814,-1.389 3.208,-1.389 1.395,0 2.461,0.46 3.199,1.38 0.739,0.914 1.116,2.23 1.134,3.947 z m -2.54,-2.584 c 0,-1.061 -0.146,-1.831 -0.439,-2.312 -0.288,-0.486 -0.739,-0.729 -1.354,-0.729 -0.598,0 -1.04,0.231 -1.327,0.694 -0.281,0.457 -0.431,1.175 -0.448,2.154 v 3.111 c 0,1.043 0.14,1.819 0.422,2.329 0.287,0.504 0.744,0.756 1.371,0.756 0.621,0 1.069,-0.243 1.344,-0.73 0.276,-0.486 0.419,-1.23 0.431,-2.232 z m 12.876,2.584 c 0,1.77 -0.366,3.123 -1.099,4.061 -0.732,0.937 -1.804,1.406 -3.216,1.406 -1.395,0 -2.461,-0.46 -3.2,-1.38 -0.738,-0.92 -1.116,-2.238 -1.133,-3.955 v -2.356 c 0,-1.787 0.369,-3.143 1.107,-4.069 0.744,-0.926 1.813,-1.389 3.208,-1.389 1.395,0 2.461,0.46 3.199,1.38 0.738,0.914 1.116,2.23 1.134,3.947 z m -2.54,-2.584 c 0,-1.061 -0.147,-1.831 -0.439,-2.312 -0.288,-0.486 -0.739,-0.729 -1.354,-0.729 -0.598,0 -1.04,0.231 -1.327,0.694 -0.281,0.457 -0.431,1.175 -0.448,2.154 v 3.111 c 0,1.043 0.14,1.819 0.421,2.329 0.288,0.504 0.745,0.756 1.372,0.756 0.621,0 1.069,-0.243 1.344,-0.73 0.276,-0.486 0.419,-1.23 0.431,-2.232 z M 735.392,262 h -2.54 v -9.791 l -3.033,0.94 v -2.065 l 5.3,-1.898 h 0.273 z m -69.909,15.709 c 0,1.77 -0.366,3.123 -1.098,4.061 -0.733,0.937 -1.805,1.406 -3.217,1.406 -1.395,0 -2.461,-0.46 -3.199,-1.38 -0.739,-0.92 -1.116,-2.238 -1.134,-3.955 v -2.356 c 0,-1.787 0.369,-3.143 1.107,-4.069 0.744,-0.926 1.814,-1.389 3.208,-1.389 1.395,0 2.461,0.46 3.2,1.38 0.738,0.914 1.116,2.23 1.133,3.947 z m -2.54,-2.584 c 0,-1.061 -0.146,-1.831 -0.439,-2.312 -0.287,-0.486 -0.738,-0.729 -1.354,-0.729 -0.597,0 -1.04,0.231 -1.327,0.694 -0.281,0.457 -0.43,1.175 -0.448,2.154 v 3.111 c 0,1.043 0.141,1.819 0.422,2.329 0.287,0.504 0.744,0.756 1.371,0.756 0.621,0 1.069,-0.243 1.345,-0.73 0.275,-0.486 0.419,-1.23 0.43,-2.232 z M 673.376,283 h -2.54 v -9.791 l -3.032,0.94 v -2.065 l 5.299,-1.898 h 0.273 z m 10.336,0 h -2.54 v -9.791 l -3.032,0.94 v -2.065 l 5.299,-1.898 h 0.273 z m 12.779,-5.291 c 0,1.77 -0.366,3.123 -1.098,4.061 -0.733,0.937 -1.805,1.406 -3.217,1.406 -1.395,0 -2.461,-0.46 -3.199,-1.38 -0.739,-0.92 -1.117,-2.238 -1.134,-3.955 v -2.356 c 0,-1.787 0.369,-3.143 1.107,-4.069 0.744,-0.926 1.814,-1.389 3.208,-1.389 1.395,0 2.461,0.46 3.199,1.38 0.739,0.914 1.117,2.23 1.134,3.947 z m -2.54,-2.584 c 0,-1.061 -0.146,-1.831 -0.439,-2.312 -0.287,-0.486 -0.739,-0.729 -1.354,-0.729 -0.597,0 -1.04,0.231 -1.327,0.694 -0.281,0.457 -0.431,1.175 -0.448,2.154 v 3.111 c 0,1.043 0.14,1.819 0.422,2.329 0.287,0.504 0.744,0.756 1.371,0.756 0.621,0 1.069,-0.243 1.344,-0.73 0.276,-0.486 0.419,-1.23 0.431,-2.232 z M 704.384,283 h -2.54 v -9.791 l -3.033,0.94 v -2.065 l 5.3,-1.898 h 0.273 z m 10.336,0 h -2.54 v -9.791 l -3.033,0.94 v -2.065 l 5.3,-1.898 h 0.273 z m 10.336,0 h -2.54 v -9.791 l -3.033,0.94 v -2.065 l 5.3,-1.898 h 0.273 z m 12.779,-5.291 c 0,1.77 -0.366,3.123 -1.099,4.061 -0.732,0.937 -1.804,1.406 -3.216,1.406 -1.395,0 -2.461,-0.46 -3.2,-1.38 -0.738,-0.92 -1.116,-2.238 -1.134,-3.955 v -2.356 c 0,-1.787 0.37,-3.143 1.108,-4.069 0.744,-0.926 1.813,-1.389 3.208,-1.389 1.394,0 2.461,0.46 3.199,1.38 0.738,0.914 1.116,2.23 1.134,3.947 z m -2.54,-2.584 c 0,-1.061 -0.147,-1.831 -0.44,-2.312 -0.287,-0.486 -0.738,-0.729 -1.353,-0.729 -0.598,0 -1.04,0.231 -1.327,0.694 -0.281,0.457 -0.431,1.175 -0.448,2.154 v 3.111 c 0,1.043 0.14,1.819 0.421,2.329 0.288,0.504 0.745,0.756 1.372,0.756 0.621,0 1.069,-0.243 1.344,-0.73 0.276,-0.486 0.419,-1.23 0.431,-2.232 z m -69.812,23.584 c 0,1.77 -0.366,3.123 -1.098,4.061 -0.733,0.937 -1.805,1.406 -3.217,1.406 -1.395,0 -2.461,-0.46 -3.199,-1.38 -0.739,-0.92 -1.116,-2.238 -1.134,-3.955 v -2.356 c 0,-1.787 0.369,-3.143 1.107,-4.069 0.744,-0.926 1.814,-1.389 3.208,-1.389 1.395,0 2.461,0.46 3.2,1.38 0.738,0.914 1.116,2.23 1.133,3.947 z m -2.54,-2.584 c 0,-1.061 -0.146,-1.831 -0.439,-2.312 -0.287,-0.486 -0.738,-0.729 -1.354,-0.729 -0.597,0 -1.04,0.231 -1.327,0.694 -0.281,0.457 -0.43,1.175 -0.448,2.154 v 3.111 c 0,1.043 0.141,1.819 0.422,2.329 0.287,0.504 0.744,0.756 1.371,0.756 0.621,0 1.069,-0.243 1.345,-0.73 0.275,-0.486 0.419,-1.23 0.43,-2.232 z M 673.376,304 h -2.54 v -9.791 l -3.032,0.94 v -2.065 l 5.299,-1.898 h 0.273 z m 10.336,0 h -2.54 v -9.791 l -3.032,0.94 v -2.065 l 5.299,-1.898 h 0.273 z m 12.779,-5.291 c 0,1.77 -0.366,3.123 -1.098,4.061 -0.733,0.937 -1.805,1.406 -3.217,1.406 -1.395,0 -2.461,-0.46 -3.199,-1.38 -0.739,-0.92 -1.117,-2.238 -1.134,-3.955 v -2.356 c 0,-1.787 0.369,-3.143 1.107,-4.069 0.744,-0.926 1.814,-1.389 3.208,-1.389 1.395,0 2.461,0.46 3.199,1.38 0.739,0.914 1.117,2.23 1.134,3.947 z m -2.54,-2.584 c 0,-1.061 -0.146,-1.831 -0.439,-2.312 -0.287,-0.486 -0.739,-0.729 -1.354,-0.729 -0.597,0 -1.04,0.231 -1.327,0.694 -0.281,0.457 -0.431,1.175 -0.448,2.154 v 3.111 c 0,1.043 0.14,1.819 0.422,2.329 0.287,0.504 0.744,0.756 1.371,0.756 0.621,0 1.069,-0.243 1.344,-0.73 0.276,-0.486 0.419,-1.23 0.431,-2.232 z M 704.384,304 h -2.54 v -9.791 l -3.033,0.94 v -2.065 l 5.3,-1.898 h 0.273 z m 12.779,-5.291 c 0,1.77 -0.366,3.123 -1.099,4.061 -0.732,0.937 -1.804,1.406 -3.216,1.406 -1.395,0 -2.461,-0.46 -3.2,-1.38 -0.738,-0.92 -1.116,-2.238 -1.133,-3.955 v -2.356 c 0,-1.787 0.369,-3.143 1.107,-4.069 0.744,-0.926 1.814,-1.389 3.208,-1.389 1.395,0 2.461,0.46 3.199,1.38 0.739,0.914 1.116,2.23 1.134,3.947 z m -2.54,-2.584 c 0,-1.061 -0.146,-1.831 -0.439,-2.312 -0.288,-0.486 -0.739,-0.729 -1.354,-0.729 -0.598,0 -1.04,0.231 -1.327,0.694 -0.281,0.457 -0.431,1.175 -0.448,2.154 v 3.111 c 0,1.043 0.14,1.819 0.422,2.329 0.287,0.504 0.744,0.756 1.371,0.756 0.621,0 1.069,-0.243 1.344,-0.73 0.276,-0.486 0.419,-1.23 0.431,-2.232 z m 12.876,2.584 c 0,1.77 -0.366,3.123 -1.099,4.061 -0.732,0.937 -1.804,1.406 -3.216,1.406 -1.395,0 -2.461,-0.46 -3.2,-1.38 -0.738,-0.92 -1.116,-2.238 -1.133,-3.955 v -2.356 c 0,-1.787 0.369,-3.143 1.107,-4.069 0.744,-0.926 1.813,-1.389 3.208,-1.389 1.395,0 2.461,0.46 3.199,1.38 0.738,0.914 1.116,2.23 1.134,3.947 z m -2.54,-2.584 c 0,-1.061 -0.147,-1.831 -0.439,-2.312 -0.288,-0.486 -0.739,-0.729 -1.354,-0.729 -0.598,0 -1.04,0.231 -1.327,0.694 -0.281,0.457 -0.431,1.175 -0.448,2.154 v 3.111 c 0,1.043 0.14,1.819 0.421,2.329 0.288,0.504 0.745,0.756 1.372,0.756 0.621,0 1.069,-0.243 1.344,-0.73 0.276,-0.486 0.419,-1.23 0.431,-2.232 z M 735.392,304 h -2.54 v -9.791 l -3.033,0.94 v -2.065 l 5.3,-1.898 h 0.273 z m -69.909,15.709 c 0,1.77 -0.366,3.123 -1.098,4.061 -0.733,0.937 -1.805,1.406 -3.217,1.406 -1.395,0 -2.461,-0.46 -3.199,-1.38 -0.739,-0.92 -1.116,-2.238 -1.134,-3.955 v -2.356 c 0,-1.787 0.369,-3.143 1.107,-4.069 0.744,-0.926 1.814,-1.389 3.208,-1.389 1.395,0 2.461,0.46 3.2,1.38 0.738,0.914 1.116,2.23 1.133,3.947 z m -2.54,-2.584 c 0,-1.061 -0.146,-1.831 -0.439,-2.312 -0.287,-0.486 -0.738,-0.729 -1.354,-0.729 -0.597,0 -1.04,0.231 -1.327,0.694 -0.281,0.457 -0.43,1.175 -0.448,2.154 v 3.111 c 0,1.043 0.141,1.819 0.422,2.329 0.287,0.504 0.744,0.756 1.371,0.756 0.621,0 1.069,-0.243 1.345,-0.73 0.275,-0.486 0.419,-1.23 0.43,-2.232 z M 673.376,325 h -2.54 v -9.791 l -3.032,0.94 v -2.065 l 5.299,-1.898 h 0.273 z m 10.336,0 h -2.54 v -9.791 l -3.032,0.94 v -2.065 l 5.299,-1.898 h 0.273 z m 12.779,-5.291 c 0,1.77 -0.366,3.123 -1.098,4.061 -0.733,0.937 -1.805,1.406 -3.217,1.406 -1.395,0 -2.461,-0.46 -3.199,-1.38 -0.739,-0.92 -1.117,-2.238 -1.134,-3.955 v -2.356 c 0,-1.787 0.369,-3.143 1.107,-4.069 0.744,-0.926 1.814,-1.389 3.208,-1.389 1.395,0 2.461,0.46 3.199,1.38 0.739,0.914 1.117,2.23 1.134,3.947 z m -2.54,-2.584 c 0,-1.061 -0.146,-1.831 -0.439,-2.312 -0.287,-0.486 -0.739,-0.729 -1.354,-0.729 -0.597,0 -1.04,0.231 -1.327,0.694 -0.281,0.457 -0.431,1.175 -0.448,2.154 v 3.111 c 0,1.043 0.14,1.819 0.422,2.329 0.287,0.504 0.744,0.756 1.371,0.756 0.621,0 1.069,-0.243 1.344,-0.73 0.276,-0.486 0.419,-1.23 0.431,-2.232 z m 12.876,2.584 c 0,1.77 -0.366,3.123 -1.099,4.061 -0.732,0.937 -1.804,1.406 -3.216,1.406 -1.395,0 -2.461,-0.46 -3.2,-1.38 -0.738,-0.92 -1.116,-2.238 -1.133,-3.955 v -2.356 c 0,-1.787 0.369,-3.143 1.107,-4.069 0.744,-0.926 1.814,-1.389 3.208,-1.389 1.395,0 2.461,0.46 3.199,1.38 0.739,0.914 1.117,2.23 1.134,3.947 z m -2.54,-2.584 c 0,-1.061 -0.146,-1.831 -0.439,-2.312 -0.287,-0.486 -0.739,-0.729 -1.354,-0.729 -0.598,0 -1.04,0.231 -1.327,0.694 -0.281,0.457 -0.431,1.175 -0.448,2.154 v 3.111 c 0,1.043 0.14,1.819 0.422,2.329 0.287,0.504 0.744,0.756 1.371,0.756 0.621,0 1.069,-0.243 1.344,-0.73 0.276,-0.486 0.419,-1.23 0.431,-2.232 z M 714.72,325 h -2.54 v -9.791 l -3.033,0.94 v -2.065 l 5.3,-1.898 h 0.273 z m 12.779,-5.291 c 0,1.77 -0.366,3.123 -1.099,4.061 -0.732,0.937 -1.804,1.406 -3.216,1.406 -1.395,0 -2.461,-0.46 -3.2,-1.38 -0.738,-0.92 -1.116,-2.238 -1.133,-3.955 v -2.356 c 0,-1.787 0.369,-3.143 1.107,-4.069 0.744,-0.926 1.813,-1.389 3.208,-1.389 1.395,0 2.461,0.46 3.199,1.38 0.738,0.914 1.116,2.23 1.134,3.947 z m -2.54,-2.584 c 0,-1.061 -0.147,-1.831 -0.439,-2.312 -0.288,-0.486 -0.739,-0.729 -1.354,-0.729 -0.598,0 -1.04,0.231 -1.327,0.694 -0.281,0.457 -0.431,1.175 -0.448,2.154 v 3.111 c 0,1.043 0.14,1.819 0.421,2.329 0.288,0.504 0.745,0.756 1.372,0.756 0.621,0 1.069,-0.243 1.344,-0.73 0.276,-0.486 0.419,-1.23 0.431,-2.232 z M 735.392,325 h -2.54 v -9.791 l -3.033,0.94 v -2.065 l 5.3,-1.898 h 0.273 z m -69.909,15.709 c 0,1.77 -0.366,3.123 -1.098,4.061 -0.733,0.937 -1.805,1.406 -3.217,1.406 -1.395,0 -2.461,-0.46 -3.199,-1.38 -0.739,-0.92 -1.116,-2.238 -1.134,-3.955 v -2.356 c 0,-1.787 0.369,-3.143 1.107,-4.069 0.744,-0.926 1.814,-1.389 3.208,-1.389 1.395,0 2.461,0.46 3.2,1.38 0.738,0.914 1.116,2.23 1.133,3.947 z m -2.54,-2.584 c 0,-1.061 -0.146,-1.831 -0.439,-2.312 -0.287,-0.486 -0.738,-0.729 -1.354,-0.729 -0.597,0 -1.04,0.231 -1.327,0.694 -0.281,0.457 -0.43,1.175 -0.448,2.154 v 3.111 c 0,1.043 0.141,1.819 0.422,2.329 0.287,0.504 0.744,0.756 1.371,0.756 0.621,0 1.069,-0.243 1.345,-0.73 0.275,-0.486 0.419,-1.23 0.43,-2.232 z M 673.376,346 h -2.54 v -9.791 l -3.032,0.94 v -2.065 l 5.299,-1.898 h 0.273 z m 10.336,0 h -2.54 v -9.791 l -3.032,0.94 v -2.065 l 5.299,-1.898 h 0.273 z m 12.779,-5.291 c 0,1.77 -0.366,3.123 -1.098,4.061 -0.733,0.937 -1.805,1.406 -3.217,1.406 -1.395,0 -2.461,-0.46 -3.199,-1.38 -0.739,-0.92 -1.117,-2.238 -1.134,-3.955 v -2.356 c 0,-1.787 0.369,-3.143 1.107,-4.069 0.744,-0.926 1.814,-1.389 3.208,-1.389 1.395,0 2.461,0.46 3.199,1.38 0.739,0.914 1.117,2.23 1.134,3.947 z m -2.54,-2.584 c 0,-1.061 -0.146,-1.831 -0.439,-2.312 -0.287,-0.486 -0.739,-0.729 -1.354,-0.729 -0.597,0 -1.04,0.231 -1.327,0.694 -0.281,0.457 -0.431,1.175 -0.448,2.154 v 3.111 c 0,1.043 0.14,1.819 0.422,2.329 0.287,0.504 0.744,0.756 1.371,0.756 0.621,0 1.069,-0.243 1.344,-0.73 0.276,-0.486 0.419,-1.23 0.431,-2.232 z M 704.384,346 h -2.54 v -9.791 l -3.033,0.94 v -2.065 l 5.3,-1.898 h 0.273 z m 10.336,0 h -2.54 v -9.791 l -3.033,0.94 v -2.065 l 5.3,-1.898 h 0.273 z m 12.779,-5.291 c 0,1.77 -0.366,3.123 -1.099,4.061 -0.732,0.937 -1.804,1.406 -3.216,1.406 -1.395,0 -2.461,-0.46 -3.2,-1.38 -0.738,-0.92 -1.116,-2.238 -1.133,-3.955 v -2.356 c 0,-1.787 0.369,-3.143 1.107,-4.069 0.744,-0.926 1.813,-1.389 3.208,-1.389 1.395,0 2.461,0.46 3.199,1.38 0.738,0.914 1.116,2.23 1.134,3.947 z m -2.54,-2.584 c 0,-1.061 -0.147,-1.831 -0.439,-2.312 -0.288,-0.486 -0.739,-0.729 -1.354,-0.729 -0.598,0 -1.04,0.231 -1.327,0.694 -0.281,0.457 -0.431,1.175 -0.448,2.154 v 3.111 c 0,1.043 0.14,1.819 0.421,2.329 0.288,0.504 0.745,0.756 1.372,0.756 0.621,0 1.069,-0.243 1.344,-0.73 0.276,-0.486 0.419,-1.23 0.431,-2.232 z m 12.876,2.584 c 0,1.77 -0.366,3.123 -1.099,4.061 -0.732,0.937 -1.804,1.406 -3.216,1.406 -1.395,0 -2.461,-0.46 -3.2,-1.38 -0.738,-0.92 -1.116,-2.238 -1.134,-3.955 v -2.356 c 0,-1.787 0.37,-3.143 1.108,-4.069 0.744,-0.926 1.813,-1.389 3.208,-1.389 1.394,0 2.461,0.46 3.199,1.38 0.738,0.914 1.116,2.23 1.134,3.947 z m -2.54,-2.584 c 0,-1.061 -0.147,-1.831 -0.44,-2.312 -0.287,-0.486 -0.738,-0.729 -1.353,-0.729 -0.598,0 -1.04,0.231 -1.327,0.694 -0.281,0.457 -0.431,1.175 -0.448,2.154 v 3.111 c 0,1.043 0.14,1.819 0.421,2.329 0.288,0.504 0.745,0.756 1.372,0.756 0.621,0 1.069,-0.243 1.344,-0.73 0.276,-0.486 0.419,-1.23 0.431,-2.232 z"
         fill="#0e0f19"
         style="" />
    </mask>
    <filter
       id="mask-powermask-path-effect920_inverse"
       inkscape:label="filtermask-powermask-path-effect920"
       style="color-interpolation-filters:sRGB"
       height="100"
       width="100"
       x="-50"
       y="-50">
      <feColorMatrix
         id="mask-powermask-path-effect920_primitive1"
         values="1"
         type="saturate"
         result="fbSourceGraphic" />
      <feColorMatrix
         id="mask-powermask-path-effect920_primitive2"
         values="-1 0 0 0 1 0 -1 0 0 1 0 0 -1 0 1 0 0 0 1 0 "
         in="fbSourceGraphic" />
    </filter>
    <rect
       x="344.83755"
       y="240"
       width="234.80145"
       height="269.45847"
       id="rect3260-5" />
    <rect
       x="344.83755"
       y="240"
       width="234.80145"
       height="269.45847"
       id="rect3273" />
    <mask
       maskUnits="userSpaceOnUse"
       id="mask-powermask-path-effect4077">
      <path
         id="mask-powermask-path-effect4077_box"
         style="fill:#ffffff;fill-opacity:1"
         d="M 356,241.607 H 469.084 V 415.538 H 356 Z" />
      <text
         xml:space="preserve"
         id="text4075"
         style="font-style:normal;font-weight:normal;font-size:40px;line-height:1.25;font-family:sans-serif;white-space:pre;shape-inside:url(#rect3260);fill:#000000;fill-opacity:1;stroke:none;"
         transform="matrix(0.62538203,0,0,0.78461923,123.50955,45.218646)"><tspan
           x="344.83789"
           y="275.39062"><tspan>♩♪♯♫♩♪</tspan><tspan>ø</tspan><tspan>♬♩</tspan></tspan><tspan
           x="344.83789"
           y="325.39062"><tspan>♪♯♫♬♫♩♪</tspan><tspan>ø</tspan></tspan><tspan
           x="344.83789"
           y="375.39062"><tspan>♬♭♫♩♮</tspan><tspan>ø</tspan><tspan>♫♩♭</tspan></tspan><tspan
           x="344.83789"
           y="425.39062"><tspan>♯♩♪</tspan><tspan>ø</tspan><tspan>♩♪</tspan><tspan>ø</tspan><tspan>♩♫♩</tspan><tspan>
</tspan></tspan><tspan
           x="344.83789"
           y="475.39062"><tspan>♫♩♫♩♭♯♮♯♩♪</tspan></tspan><tspan
           style="visibility:hidden"
           x="344.83789"
           y="544.84961"><tspan>ø</tspan><tspan
             dx="24.472656 18.867188">♩♪</tspan><tspan
             dx="25.527344">ø</tspan><tspan
             dx="24.472656 18.867188 35.859375 18.867188 25.527344 35.859375">♩♫♩♪♫♬</tspan><tspan
             dx="35.859375">
</tspan></tspan><tspan
           style="visibility:hidden"
           x="344.83789"
           y="594.84961"><tspan
             dx="0 18.867188 35.859375 18.867188 35.859375 18.867188 14.296875 18.867188">♭♫♩♫♩♮♩♪</tspan><tspan
             dx="25.527344">ø</tspan><tspan
             dx="24.472656">♯</tspan><tspan
             dx="19.355469">ø</tspan><tspan
             dx="24.472656 18.867188 35.859375 18.867188 35.859375 18.867188 14.296875 18.867188">♭♫♩♫♩♮♩♪</tspan><tspan
             dx="25.527344 24.472656">ø
</tspan></tspan><tspan
           style="visibility:hidden"
           x="344.83789"
           y="644.84961"><tspan
             dx="0 18.867188">♩♪</tspan><tspan
             dx="25.527344">ø</tspan><tspan
             dx="24.472656 18.867188">♩♪</tspan><tspan
             dx="25.527344">ø</tspan><tspan
             dx="24.472656 18.867188 35.859375 18.867188 25.527344 18.867188 25.527344 19.355469 35.859375 18.867188 25.527344 18.867188 25.527344 19.355469">♩♫♩♪♩♪♯♫♩♪♩♪♯♫</tspan><tspan
             dx="35.859375">
</tspan></tspan><tspan
           style="visibility:hidden"
           x="344.83789"
           y="694.84961"><tspan
             dx="0 18.867188 25.527344 18.867188 35.859375 18.867188 35.859375 18.867188 14.296875 18.867188">♩♪♭♫♩♫♩♮♩♪</tspan><tspan
             dx="25.527344">ø</tspan><tspan
             dx="24.472656">♯</tspan><tspan
             dx="19.355469">ø</tspan><tspan
             dx="24.472656 18.867188 35.859375 18.867188">♭♫♩♪</tspan><tspan
             dx="25.527344">ø</tspan><tspan
             dx="24.472656 18.867188">♩♪</tspan></tspan></text>
    </mask>
    <filter
       id="mask-powermask-path-effect4077_inverse"
       inkscape:label="filtermask-powermask-path-effect4077"
       style="color-interpolation-filters:sRGB"
       height="100"
       width="100"
       x="-50"
       y="-50">
      <feColorMatrix
         id="mask-powermask-path-effect4077_primitive1"
         values="1"
         type="saturate"
         result="fbSourceGraphic" />
      <feColorMatrix
         id="mask-powermask-path-effect4077_primitive2"
         values="-1 0 0 0 1 0 -1 0 0 1 0 0 -1 0 1 0 0 0 1 0 "
         in="fbSourceGraphic" />
    </filter>
    <mask
       maskUnits="userSpaceOnUse"
       id="mask-powermask-path-effect4177">
      <path
         id="mask-powermask-path-effect4177_box"
         style="fill:#ffffff;fill-opacity:1"
         d="M 791.043,232.35 H 904.121 V 406.282 H 791.043 Z" />
      <text
         xml:space="preserve"
         id="text4175"
         style="font-style:normal;font-weight:normal;font-size:40px;line-height:1.25;font-family:sans-serif;white-space:pre;shape-inside:url(#rect3260-5);fill:#000000;fill-opacity:1;stroke:none;"
         transform="matrix(0.61229117,0,0,0.76976539,567.33861,40.430687)"><tspan
           x="344.83789"
           y="275.39062"><tspan>♩♪♯♫♩♪</tspan><tspan>ø</tspan><tspan>♬♩</tspan></tspan><tspan
           x="344.83789"
           y="325.39062"><tspan>♪♯♫♬♫♩♪</tspan><tspan>ø</tspan></tspan><tspan
           x="344.83789"
           y="375.39062"><tspan>♬♭♫♩♮♫♩♭</tspan><tspan>♯</tspan></tspan><tspan
           x="344.83789"
           y="425.39062"><tspan>♩♪</tspan><tspan>ø</tspan><tspan>♩♪</tspan><tspan>ø</tspan><tspan>♩♫♩</tspan><tspan>
</tspan></tspan><tspan
           x="344.83789"
           y="475.39062"><tspan>♫♩♫♩♭♯♮♯♩♪</tspan></tspan><tspan
           style="visibility:hidden"
           x="344.83789"
           y="544.84961"><tspan>ø</tspan><tspan
             dx="24.472656 18.867188">♩♪</tspan><tspan
             dx="25.527344">ø</tspan><tspan
             dx="24.472656 18.867188 35.859375 18.867188 25.527344 35.859375">♩♫♩♪♫♬</tspan><tspan
             dx="35.859375">
</tspan></tspan><tspan
           style="visibility:hidden"
           x="344.83789"
           y="594.84961"><tspan
             dx="0 18.867188 35.859375 18.867188 35.859375 18.867188 14.296875 18.867188">♭♫♩♫♩♮♩♪</tspan><tspan
             dx="25.527344">ø</tspan><tspan
             dx="24.472656">♯</tspan><tspan
             dx="19.355469">ø</tspan><tspan
             dx="24.472656 18.867188 35.859375 18.867188 35.859375 18.867188 14.296875 18.867188">♭♫♩♫♩♮♩♪</tspan><tspan
             dx="25.527344 24.472656">ø
</tspan></tspan><tspan
           style="visibility:hidden"
           x="344.83789"
           y="644.84961"><tspan
             dx="0 18.867188">♩♪</tspan><tspan
             dx="25.527344">ø</tspan><tspan
             dx="24.472656 18.867188">♩♪</tspan><tspan
             dx="25.527344">ø</tspan><tspan
             dx="24.472656 18.867188 35.859375 18.867188 25.527344 18.867188 25.527344 19.355469 35.859375 18.867188 25.527344 18.867188 25.527344 19.355469">♩♫♩♪♩♪♯♫♩♪♩♪♯♫</tspan><tspan
             dx="35.859375">
</tspan></tspan><tspan
           style="visibility:hidden"
           x="344.83789"
           y="694.84961"><tspan
             dx="0 18.867188 25.527344 18.867188 35.859375 18.867188 35.859375 18.867188 14.296875 18.867188">♩♪♭♫♩♫♩♮♩♪</tspan><tspan
             dx="25.527344">ø</tspan><tspan
             dx="24.472656">♯</tspan><tspan
             dx="19.355469">ø</tspan><tspan
             dx="24.472656 18.867188 35.859375 18.867188">♭♫♩♪</tspan><tspan
             dx="25.527344">ø</tspan><tspan
             dx="24.472656 18.867188">♩♪</tspan></tspan></text>
    </mask>
    <filter
       id="mask-powermask-path-effect4177_inverse"
       inkscape:label="filtermask-powermask-path-effect4177"
       style="color-interpolation-filters:sRGB"
       height="100"
       width="100"
       x="-50"
       y="-50">
      <feColorMatrix
         id="mask-powermask-path-effect4177_primitive1"
         values="1"
         type="saturate"
         result="fbSourceGraphic" />
      <feColorMatrix
         id="mask-powermask-path-effect4177_primitive2"
         values="-1 0 0 0 1 0 -1 0 0 1 0 0 -1 0 1 0 0 0 1 0 "
         in="fbSourceGraphic" />
    </filter>
    <mask
       maskUnits="userSpaceOnUse"
       id="mask-powermask-path-effect4213">
      <path
         id="mask-powermask-path-effect4213_box"
         style="fill:#ffffff;fill-opacity:1"
         d="m 580.614,367.64 h 95.59 v 48.794 h -95.59 z" />
      <text
         xml:space="preserve"
         style="font-style:normal;font-weight:normal;font-size:8.48002px;line-height:1.25;font-family:sans-serif;fill:#000000;fill-opacity:1;stroke:none;stroke-width:0.212001"
         x="523.91827"
         y="401.46329"
         id="text4211"
         transform="scale(1.0831392,0.92324236)"><tspan
           sodipodi:role="line"
           id="tspan4199"
           x="523.91827"
           y="401.46329"
           style="stroke-width:0.212001">background: hsla(52,100%,0%,0.9);</tspan><tspan
           sodipodi:role="line"
           x="523.91827"
           y="412.06332"
           id="tspan4201"
           style="stroke-width:0.212001">color: hsl(207,20%,100%);</tspan><tspan
           sodipodi:role="line"
           x="523.91827"
           y="422.66333"
           id="tspan4203"
           style="stroke-width:0.212001">box-shadow: 0 1px 9px hsla(207,0%,30%,0.7);</tspan><tspan
           sodipodi:role="line"
           x="523.91827"
           y="433.26337"
           id="tspan4205"
           style="stroke-width:0.212001">border: 3px solid hsla(207,0%,55%,0.4);</tspan><tspan
           sodipodi:role="line"
           x="523.91827"
           y="443.86337"
           id="tspan4207"
           style="stroke-width:0.212001">border-radius: 39px;</tspan><tspan
           sodipodi:role="line"
           x="523.91827"
           y="454.46341"
           id="tspan4209"
           style="stroke-width:0.212001">display: inline-block;</tspan></text>
    </mask>
    <filter
       id="mask-powermask-path-effect4213_inverse"
       inkscape:label="filtermask-powermask-path-effect4213"
       style="color-interpolation-filters:sRGB"
       height="100"
       width="100"
       x="-50"
       y="-50">
      <feColorMatrix
         id="mask-powermask-path-effect4213_primitive1"
         values="1"
         type="saturate"
         result="fbSourceGraphic" />
      <feColorMatrix
         id="mask-powermask-path-effect4213_primitive2"
         values="-1 0 0 0 1 0 -1 0 0 1 0 0 -1 0 1 0 0 0 1 0 "
         in="fbSourceGraphic" />
    </filter>
  </defs>
  <sodipodi:namedview
     pagecolor="#ffffff"
     bordercolor="#666666"
     borderopacity="1"
     objecttolerance="10"
     gridtolerance="10"
     guidetolerance="10"
     inkscape:pageopacity="0"
     inkscape:pageshadow="2"
     inkscape:window-width="1920"
     inkscape:window-height="1017"
     id="namedview26"
     showgrid="false"
     inkscape:zoom="1.1541667"
     inkscape:cx="286.75451"
     inkscape:cy="191.58304"
     inkscape:window-x="1912"
     inkscape:window-y="-8"
     inkscape:window-maximized="1"
     inkscape:current-layer="g4230"
     fit-margin-top="0"
     fit-margin-left="0"
     fit-margin-right="0"
     fit-margin-bottom="0"
     inkscape:document-rotation="0" />
  <g
     id="Group 17"
     transform="translate(-357,-13)">
    <g
       id="Group 16">
      <rect
         style="fill:#ffffff"
         id="rect4237"
         width="556.24548"
         height="512.92419"
         x="354.40073"
         y="10.400723" />
      <g
         id="g4230">
        <path
           d="m 442.726,414.538 h -23.413 l -39.172,-0.01 C 367.376,414.528 357,404.151 357,391.384 V 265.748 c 0,-12.761 10.376,-23.141 23.141,-23.141 h 4.079 26.7 10.421 23.603 c 4.757,0 9.174,1.448 12.859,3.92 6.189,4.152 10.281,11.216 10.281,19.221 v 99.28 26.366 c 0,12.766 -10.378,23.144 -23.14,23.144 z"
           fill="#0563bb"
           id="path17"
           mask="url(#mask-powermask-path-effect4077)"
           inkscape:path-effect="#path-effect4077"
           inkscape:original-d="m 442.726,414.538 h -23.413 l -39.172,-0.01 C 367.376,414.528 357,404.151 357,391.384 V 265.748 c 0,-12.761 10.376,-23.141 23.141,-23.141 h 4.079 26.7 10.421 23.603 c 4.757,0 9.174,1.448 12.859,3.92 6.189,4.152 10.281,11.216 10.281,19.221 v 99.28 26.366 c 0,12.766 -10.378,23.144 -23.14,23.144 z"
           onmouseover="" />
        <path
           id="Vector"
           d="m 815.187,224.097 h 15.239 7.433 29.919 C 852.066,105.128 750.075,13 626.887,13 500.518,13 396.411,109.938 384.927,233.351 h 28.275 8.925 22.796 c 5.609,0 10.811,1.569 15.42,4.088 22.862,-70.182 88.828,-121.075 166.534,-121.075 76.346,0 141.273,49.178 165.201,117.462 5.895,-5.986 14.071,-9.729 23.109,-9.729 z M 626.887,70.0821 c -81.92,0 -153.396,44.5149 -191.709,110.6429 30.15,-76.443 104.689,-130.7016 191.709,-130.7016 87.004,0 161.542,54.2516 191.697,130.6816 C 780.277,114.587 708.801,70.0821 626.887,70.0821 Z"
           fill="#0563bb"
           onmouseover="" />
        <path
           id="Vector_2"
           d="m 477.332,382.293 v 9.091 c 0,16.491 -12.43,29.995 -28.389,31.995 40.358,54.38 105.018,89.621 177.944,89.621 76.972,0 144.74,-39.284 184.43,-98.86 -16.018,-1.937 -28.53,-15.469 -28.53,-32.012 v -11.08 c -29.03,56.698 -87.944,95.675 -155.9,95.675 -63.353,-0.001 -118.785,-33.918 -149.555,-84.43 z"
           fill="#0563bb"
           onmouseover="" />
        <g
           mask="url(#mask-powermask-path-effect910)"
           id="g7"
           inkscape:path-effect="#path-effect910">
          <path
             id="Vector_3"
             d="m 563.721,247.245 c 18.746,0 33.942,15.201 33.942,33.942 0,18.747 -15.196,33.943 -33.942,33.943 -18.749,0 -33.943,-15.196 -33.943,-33.943 0,-18.741 15.194,-33.942 33.943,-33.942 z"
             fill="#0563bb"
             inkscape:original-d="m 563.721,247.245 c 18.746,0 33.942,15.201 33.942,33.942 0,18.747 -15.196,33.943 -33.942,33.943 -18.749,0 -33.943,-15.196 -33.943,-33.943 0,-18.741 15.194,-33.942 33.943,-33.942 z"
             onmouseover="" />
        </g>
        <g
           mask="url(#mask-powermask-path-effect920)"
           id="g12"
           inkscape:path-effect="#path-effect920">
          <path
             id="Vector_4"
             d="m 693.307,247.245 c 18.749,0 33.946,15.201 33.946,33.942 0,18.747 -15.197,33.943 -33.946,33.943 -18.744,0 -33.94,-15.196 -33.94,-33.943 0,-18.741 15.195,-33.942 33.94,-33.942 z"
             fill="#0563bb"
             inkscape:original-d="m 693.307,247.245 c 18.749,0 33.946,15.201 33.946,33.942 0,18.747 -15.197,33.943 -33.946,33.943 -18.744,0 -33.94,-15.196 -33.94,-33.943 0,-18.741 15.195,-33.942 33.94,-33.942 z"
             onmouseover="" />
        </g>
        <path
           id="Vector_6"
           d="m 628.409,368.64 c 25.845,0 46.795,0 46.795,0 0,25.844 -20.95,46.794 -46.795,46.794 -25.848,0 -46.795,-20.95 -46.795,-46.794 0,0 20.947,0 46.795,0 z"
           fill="#0563bb"
           mask="url(#mask-powermask-path-effect4213)"
           inkscape:path-effect="#path-effect4213"
           inkscape:original-d="m 628.409,368.64 c 25.845,0 46.795,0 46.795,0 0,25.844 -20.95,46.794 -46.795,46.794 -25.848,0 -46.795,-20.95 -46.795,-46.794 0,0 20.947,0 46.795,0 z"
           onmouseover="" />
        <path
           d="m 879.977,405.271 -33.079,0.011 h -29.976 -1.735 c -12.762,0 -23.144,-10.376 -23.144,-23.144 v -32.731 -92.915 c 0,-4.385 1.304,-8.456 3.436,-11.959 4.068,-6.67 11.334,-11.183 19.708,-11.183 h 16.452 8.94 28.274 11.124 c 12.767,0 23.144,10.379 23.144,23.141 v 125.636 c 0,12.767 -10.377,23.144 -23.144,23.144 z"
           fill="#0563bb"
           id="path15"
           mask="url(#mask-powermask-path-effect4177)"
           inkscape:path-effect="#path-effect4177"
           inkscape:original-d="m 879.977,405.271 -33.079,0.011 h -29.976 -1.735 c -12.762,0 -23.144,-10.376 -23.144,-23.144 v -32.731 -92.915 c 0,-4.385 1.304,-8.456 3.436,-11.959 4.068,-6.67 11.334,-11.183 19.708,-11.183 h 16.452 8.94 28.274 11.124 c 12.767,0 23.144,10.379 23.144,23.141 v 125.636 c 0,12.767 -10.377,23.144 -23.144,23.144 z"
           onmouseover="" />
      </g>
    </g>
  </g>
</svg>
