<?xml version="1.0" encoding="UTF-8" standalone="no"?>
<!-- Created with Inkscape (http://www.inkscape.org/) -->

<svg
   width="210mm"
   height="297mm"
   viewBox="0 0 210 297"
   version="1.1"
   id="svg1"
   xml:space="preserve"
   inkscape:version="1.3 (0e150ed6c4, 2023-07-21)"
   sodipodi:docname="a11y.svg"
   xmlns:inkscape="http://www.inkscape.org/namespaces/inkscape"
   xmlns:sodipodi="http://sodipodi.sourceforge.net/DTD/sodipodi-0.dtd"
   xmlns="http://www.w3.org/2000/svg"
   xmlns:svg="http://www.w3.org/2000/svg"><sodipodi:namedview
     id="namedview1"
     pagecolor="#ffffff"
     bordercolor="#666666"
     borderopacity="1.0"
     inkscape:showpageshadow="2"
     inkscape:pageopacity="0.0"
     inkscape:pagecheckerboard="0"
     inkscape:deskcolor="#d1d1d1"
     inkscape:document-units="mm"
     inkscape:zoom="0.46235269"
     inkscape:cx="295.22917"
     inkscape:cy="561.25984"
     inkscape:window-width="1366"
     inkscape:window-height="715"
     inkscape:window-x="-8"
     inkscape:window-y="-8"
     inkscape:window-maximized="1"
     inkscape:current-layer="layer2" /><defs
     id="defs1" /><g
     inkscape:label="Layer 1"
     inkscape:groupmode="layer"
     id="layer1"><g
       id="g1"
       transform="matrix(0.41341146,0,0,0.41341146,-0.83333376,42.666666)"
       inkscape:export-filename="a11y.svg"
       inkscape:export-xdpi="96"
       inkscape:export-ydpi="96">&#10;	<path
   class="st0"
   d="M 255.994,0.006 C 114.607,0.013 0.012,114.612 0,256 0.012,397.387 114.607,511.986 255.994,511.994 397.393,511.986 511.992,397.387 512,256 511.992,114.612 397.393,0.013 255.994,0.006 Z M 97.607,97.612 c 23.34,-23.328 51.761,-41.475 83.455,-52.725 -15.183,18.375 -27.84,41.906 -37.757,69.116 H 82.772 c 4.68,-5.695 9.624,-11.179 14.835,-16.391 z m -31.995,40.391 h 69.986 C 126.59,169.932 121.188,205.837 120.235,244 H 32.327 C 34.374,205.196 46.3,169.088 65.612,138.003 Z m 0,235.994 C 46.3,342.912 34.374,306.804 32.327,268 h 87.991 c 0.961,38.124 6.21,74.092 15.206,105.998 H 65.612 Z m 31.995,40.389 c -5.211,-5.211 -10.156,-10.695 -14.836,-16.39 h 60.573 c 4.28,11.774 9.019,22.944 14.312,33.21 6.954,13.438 14.758,25.468 23.348,35.89 -31.672,-11.25 -60.073,-29.397 -83.397,-52.71 z m 146.391,65.281 c -3.746,-0.196 -7.469,-0.477 -11.164,-0.86 -5.89,-2.64 -11.722,-6.25 -17.5,-10.961 -17.632,-14.359 -33.976,-38.671 -46.398,-69.85 h 75.061 v 81.671 z m 0,-105.67 h -83.436 c -9.477,-31.171 -15.316,-67.311 -16.328,-105.998 h 99.763 v 105.998 z m 0,-129.997 H 144.31 c 1.008,-38.71 6.875,-74.819 16.359,-105.997 h 83.33 V 244 Z m 0,-129.997 h -74.951 c 3.109,-7.79 6.367,-15.312 9.934,-22.195 10.64,-20.625 23.17,-36.89 36.354,-47.656 5.777,-4.71 11.609,-8.32 17.5,-10.96 3.695,-0.382 7.417,-0.664 11.164,-0.859 v 81.67 z m 202.394,24 c 19.312,31.085 31.234,67.194 33.281,105.997 h -87.991 c -0.961,-38.124 -6.21,-74.092 -15.21,-105.997 z M 414.393,97.612 c 5.211,5.211 10.156,10.696 14.836,16.391 h -60.577 c -4.281,-11.773 -9.023,-22.945 -14.312,-33.21 -6.953,-13.437 -14.758,-25.468 -23.347,-35.89 31.675,11.257 60.072,29.398 83.4,52.709 z M 267.998,32.333 c 3.746,0.195 7.469,0.484 11.16,0.859 5.89,2.649 11.723,6.25 17.504,10.96 17.636,14.359 33.976,38.671 46.397,69.85 h -75.061 z m 0,105.67 h 83.436 c 9.476,31.171 15.32,67.31 16.328,105.997 h -99.764 z m 0,129.997 h 99.685 c -1.007,38.71 -6.874,74.818 -16.359,105.998 h -83.326 z m 28.663,199.846 c -5.781,4.711 -11.614,8.313 -17.504,10.961 -3.691,0.375 -7.414,0.664 -11.16,0.86 v -81.67 h 74.951 c -3.109,7.789 -6.367,15.312 -9.933,22.195 -10.639,20.624 -23.17,36.889 -36.354,47.654 z m 117.732,-53.46 c -23.336,23.328 -51.764,41.476 -83.459,52.725 15.187,-18.375 27.835,-41.905 37.757,-69.115 h 60.538 c -4.681,5.696 -9.625,11.18 -14.836,16.39 z m 31.999,-40.389 h -69.998 c 9.008,-31.929 14.414,-67.842 15.367,-105.998 h 87.912 c -2.047,38.805 -13.969,74.913 -33.281,105.998 z"
   id="path1" />&#10;</g></g><g
     inkscape:groupmode="layer"
     id="layer3"
     inkscape:label="Layer 3"><rect
       style="fill:#f9f9f9;stroke:#000000;stroke-width:9.37;stroke-linecap:round;stroke-linejoin:round;stroke-dasharray:none;stroke-opacity:1"
       id="rect2"
       width="114.45087"
       height="138.48555"
       x="47.774567"
       y="79.257225"
       ry="9.1560698" /></g><g
     inkscape:groupmode="layer"
     id="layer2"
     inkscape:label="Layer 2"><g
       id="Layer_2"
       data-name="Layer 2"
       transform="matrix(3.9797744,0,0,3.9797806,9.4854144,52.985266)"><g
         id="invisible_box"
         data-name="invisible box"><rect
           width="48"
           height="48"
           fill="none"
           id="rect1"
           x="0"
           y="0" /></g><g
         id="Layer_6"
         data-name="Layer 6"><g
           id="g2"><circle
             cx="24"
             cy="13"
             r="3"
             id="circle1"
             style="fill:#cc4d00" /><path
             d="M 35,17 H 13 a 2,2 0 0 0 0,4 h 7 v 4.8 l -2,9.8 A 2.1,2.1 0 0 0 19.6,38 H 20 a 2.1,2.1 0 0 0 2,-1.6 L 23.8,27 h 0.4 l 1.8,9.4 a 2.1,2.1 0 0 0 2,1.6 h 0.4 A 2.1,2.1 0 0 0 30,35.6 L 28,25.8 V 21 h 7 a 2,2 0 0 0 0,-4 z"
             id="path2"
             style="fill:#cc4d00" /></g></g></g></g><style
     type="text/css"
     id="style1">&#10;	.st0{fill:#000000;}&#10;</style></svg>
