<?xml version="1.0" encoding="UTF-8" standalone="no"?>
<!-- Created with Inkscape (http://www.inkscape.org/) -->

<svg
   width="46.845219mm"
   height="54.652756mm"
   viewBox="0 0 46.845219 54.652756"
   version="1.1"
   id="svg1"
   xml:space="preserve"
   inkscape:version="1.3 (0e150ed6c4, 2023-07-21)"
   sodipodi:docname="a11yhuman.svg"
   xmlns:inkscape="http://www.inkscape.org/namespaces/inkscape"
   xmlns:sodipodi="http://sodipodi.sourceforge.net/DTD/sodipodi-0.dtd"
   xmlns="http://www.w3.org/2000/svg"
   xmlns:svg="http://www.w3.org/2000/svg"><sodipodi:namedview
     id="namedview1"
     pagecolor="#ffffff"
     bordercolor="#666666"
     borderopacity="1.0"
     inkscape:showpageshadow="2"
     inkscape:pageopacity="0.0"
     inkscape:pagecheckerboard="0"
     inkscape:deskcolor="#d1d1d1"
     inkscape:document-units="mm"
     inkscape:zoom="0.46235269"
     inkscape:cx="276.84493"
     inkscape:cy="83.269765"
     inkscape:window-width="1366"
     inkscape:window-height="715"
     inkscape:window-x="-8"
     inkscape:window-y="-8"
     inkscape:window-maximized="1"
     inkscape:current-layer="layer1"
     showgrid="false" /><defs
     id="defs1">&#10;&#10;&#10;&#10;&#10;&#10;</defs><g
     inkscape:label="Layer 1"
     inkscape:groupmode="layer"
     id="layer1"
     transform="translate(-25.219011,-113.36131)"><g
       id="g2"
       transform="matrix(0.41341227,0,0,0.41341227,-1.1109978,66.701348)">&#10;	&#10;	&#10;</g><g
       style="fill:#fd793f;fill-opacity:1"
       id="g4"
       transform="matrix(3.9037682,0,0,3.9037682,25.219011,113.36131)"><path
         d="M 5.900404,10.015618 5.576408,13.103049 C 5.5186786,13.653166 5.026617,14.052252 4.4773577,13.994432 3.9280984,13.936613 3.5296348,13.443782 3.5873642,12.893665 L 4.3098044,6.009371 H 1 C 0.44771525,6.009371 0,5.5609565 0,5.0078091 0,4.4546618 0.44771525,4.0062473 1,4.0062473 h 10 c 0.552285,0 1,0.4484145 1,1.0015618 0,0.5531474 -0.447715,1.0015619 -1,1.0015619 H 7.6901956 l 0.7224402,6.884294 C 8.4703652,13.443782 8.0719016,13.936613 7.5226423,13.994432 6.973383,14.052252 6.4813214,13.653166 6.423592,13.103049 L 6.099596,10.015618 Z M 6,4.0062473 c -1.1045695,0 -2,-0.896829 -2,-2.0031236 C 4,0.89682901 4.8954305,0 6,0 7.1045695,0 8,0.89682901 8,2.0031237 8,3.1094183 7.1045695,4.0062473 6,4.0062473 Z"
         id="path1-0"
         style="fill:#fd793f;fill-opacity:1" /></g></g></svg>
