<svg xmlns="http://www.w3.org/2000/svg" version="1.1" xmlns:xlink="http://www.w3.org/1999/xlink" width="512" height="512"><svg width="512" height="512" viewBox="0 0 135.46666 135.46667" version="1.1" id="SvgjsSvg1038" inkscape:export-filename="favicon.svg" inkscape:export-xdpi="96" inkscape:export-ydpi="96" xmlns:inkscape="http://www.inkscape.org/namespaces/inkscape" xmlns:sodipodi="http://sodipodi.sourceforge.net/DTD/sodipodi-0.dtd" xmlns="http://www.w3.org/2000/svg" xmlns:svg="http://www.w3.org/2000/svg">
  <sodipodi:namedview id="SvgjsSodipodi:namedview1037" pagecolor="#ffffff" bordercolor="#000000" borderopacity="0.25" inkscape:showpageshadow="2" inkscape:pageopacity="0.0" inkscape:pagecheckerboard="0" inkscape:deskcolor="#d1d1d1" inkscape:document-units="mm" inkscape:export-bgcolor="#ffffffff">
    <inkscape:page x="0" y="0" width="135.46666" height="135.46667" id="SvgjsInkscape:page1036" margin="0" bleed="0"></inkscape:page>
  </sodipodi:namedview>
  <defs id="SvgjsDefs1035"></defs>
  <g inkscape:label="Layer 1" inkscape:groupmode="layer" id="SvgjsG1034">
    <circle style="opacity:1;fill:#ffffff;stroke-width:0.132291" id="SvgjsCircle1033" cx="67.73333" cy="67.73333" r="66.145836"></circle>
    <rect style="opacity:1;fill:#ffffff;stroke-width:0.236234" id="SvgjsRect1032" width="135.46666" height="135.46666" x="3.5603841e-06" y="3.5603841e-06"></rect>
    <g id="SvgjsG1031" style="opacity:1" transform="matrix(0.93627346,0.002913,-0.002913,0.93627346,-111.3915,-24.255472)">
      <path style="fill:#03047e;fill-opacity:1;stroke:#000000;stroke-width:4;stroke-dasharray:none;stroke-opacity:1" d="m 137.07615,49.175636 -39.435587,0.220259 c -7.932,0.04463 -15.379742,3.183014 -20.971369,8.837372 -5.591627,5.654333 -8.6469,13.136843 -8.603093,21.069283 0.09169,16.398888 13.50757,29.66595 29.906672,29.57491 l 39.435147,-0.22026 c 7.93222,-0.0444 15.3806,-3.18302 20.97223,-8.837373 5.59162,-5.654358 8.6469,-13.13728 8.60265,-21.069308 -0.0444,-7.932222 -3.18279,-15.380383 -8.83715,-20.97201 -5.65414,-5.591846 -13.13684,-8.646901 -21.0695,-8.602873 z M 97.723503,64.184465 137.15884,63.963963 c 8.24476,-0.04585 14.98979,6.624444 15.03622,14.868983 0.0451,8.244976 -6.62554,14.990442 -14.86942,15.036192 l -19.71768,0.11013 2.2e-4,1.94e-4 -19.717667,0.109887 c -8.24476,0.04585 -14.989792,-6.62442 -15.035992,-14.869178 -0.046,-8.244976 6.624222,-14.990005 14.868982,-15.035755 z" id="SvgjsPath1030"></path>
      <path style="fill:#a70011;fill-opacity:1;stroke:#000000;stroke-width:4;stroke-dasharray:none;stroke-opacity:1" d="m 285.15123,48.611282 -39.43556,0.219774 c -7.93225,0.04439 -15.38017,3.183014 -20.97182,8.837372 -5.59163,5.654357 -8.64712,13.137061 -8.60287,21.069065 0.0442,7.932464 3.18258,15.380625 8.83693,20.972253 5.65458,5.591844 13.13728,8.647334 21.06975,8.602654 l 39.43512,-0.21977 c 7.93225,-0.0444 15.38063,-3.18258 20.97226,-8.836939 5.59162,-5.654357 8.6469,-13.137279 8.60243,-21.069526 -0.0444,-7.932246 -3.1826,-15.380601 -8.83693,-20.972253 -5.65436,-5.591603 -13.13663,-8.646682 -21.06931,-8.602654 z m 0.2493,44.692944 -19.71768,0.11013 -19.71767,0.109644 c -8.24478,0.04633 -14.99,-6.624202 -15.036,-14.869177 -0.0461,-8.244539 6.62421,-14.989569 14.86896,-15.035755 l 39.43537,-0.220017 c 8.24476,-0.04585 14.98977,6.62442 15.03598,14.869178 0.0461,8.245194 -6.62377,14.990005 -14.86896,15.035779 z" id="SvgjsPath1029"></path>
      <g style="fill:#fd793f;fill-opacity:1;stroke:#000000;stroke-width:0.422404;stroke-dasharray:none;stroke-opacity:1" id="SvgjsG1028" transform="matrix(9.469618,0,0,9.469618,134.74408,31.346008)">
        <path d="M 5.900404,10.015618 5.576408,13.103049 C 5.5186786,13.653166 5.026617,14.052252 4.4773577,13.994432 3.9280984,13.936613 3.5296348,13.443782 3.5873642,12.893665 L 4.3098044,6.009371 H 1 C 0.44771525,6.009371 0,5.5609565 0,5.0078091 0,4.4546618 0.44771525,4.0062473 1,4.0062473 h 10 c 0.552285,0 1,0.4484145 1,1.0015618 0,0.5531474 -0.447715,1.0015619 -1,1.0015619 H 7.6901956 l 0.7224402,6.884294 C 8.4703652,13.443782 8.0719016,13.936613 7.5226423,13.994432 6.973383,14.052252 6.4813214,13.653166 6.423592,13.103049 L 6.099596,10.015618 Z M 6,4.0062473 c -1.1045695,0 -2,-0.896829 -2,-2.0031236 C 4,0.89682901 4.8954305,0 6,0 7.1045695,0 8,0.89682901 8,2.0031237 8,3.1094183 7.1045695,4.0062473 6,4.0062473 Z" id="SvgjsPath1027" style="fill:#fd793f;fill-opacity:1;stroke:#000000;stroke-width:0.422404;stroke-dasharray:none;stroke-opacity:1"></path>
      </g>
    </g>
  </g>
</svg><style>@media (prefers-color-scheme: light) { :root { filter: none; } }
@media (prefers-color-scheme: dark) { :root { filter: none; } }
</style></svg>