<?xml version="1.0" encoding="UTF-8" standalone="no"?>
<!-- Created with Inkscape (http://www.inkscape.org/) -->

<svg
   width="90.913231mm"
   height="54.652756mm"
   viewBox="0 0 90.913232 54.652756"
   version="1.1"
   id="svg1"
   xml:space="preserve"
   inkscape:version="1.3 (0e150ed6c4, 2023-07-21)"
   sodipodi:docname="missing_link_logo_no_text.svg"
   xmlns:inkscape="http://www.inkscape.org/namespaces/inkscape"
   xmlns:sodipodi="http://sodipodi.sourceforge.net/DTD/sodipodi-0.dtd"
   xmlns="http://www.w3.org/2000/svg"
   xmlns:svg="http://www.w3.org/2000/svg"><sodipodi:namedview
     id="namedview1"
     pagecolor="#ffffff"
     bordercolor="#666666"
     borderopacity="1.0"
     inkscape:showpageshadow="2"
     inkscape:pageopacity="0.0"
     inkscape:pagecheckerboard="0"
     inkscape:deskcolor="#d1d1d1"
     inkscape:document-units="mm"
     inkscape:zoom="0.46235269"
     inkscape:cx="361.19612"
     inkscape:cy="83.269765"
     inkscape:window-width="1366"
     inkscape:window-height="715"
     inkscape:window-x="-8"
     inkscape:window-y="-8"
     inkscape:window-maximized="1"
     inkscape:current-layer="layer1" /><defs
     id="defs1">&#10;&#10;&#10;&#10;&#10;&#10;</defs><g
     inkscape:label="Layer 1"
     inkscape:groupmode="layer"
     id="layer1"
     transform="translate(-3.1850037,-113.36131)"><g
       id="g2"
       transform="matrix(0.41341227,0,0,0.41341227,-1.1109978,66.701348)">&#10;	&#10;	&#10;</g><path
       style="fill:#03047e;fill-opacity:1;stroke-width:0.127951"
       d="m 31.633985,120.71142 -16.256974,0.0908 c -3.269905,0.0184 -6.3401617,1.31217 -8.6452625,3.64313 -2.305101,2.33095 -3.5646123,5.41555 -3.5465533,8.68563 0.037799,6.7603 5.5683798,12.22953 12.3287678,12.192 l 16.256793,-0.0908 c 3.269995,-0.0183 6.340523,-1.31217 8.645624,-3.64313 2.305102,-2.33096 3.564611,-5.41573 3.546372,-8.68564 -0.01832,-3.26999 -1.312081,-6.34043 -3.643041,-8.64553 -2.33087,-2.30519 -5.415549,-3.56461 -8.685726,-3.54646 z m -16.222788,6.18726 16.256882,-0.0909 c 3.398832,-0.0189 6.179407,2.73087 6.198546,6.12961 0.0186,3.39892 -2.731313,6.17968 -6.129782,6.19854 l -8.128442,0.0454 9.1e-5,8e-5 -8.128442,0.0453 c -3.398831,0.0189 -6.1794069,-2.73086 -6.1984551,-6.12969 -0.018959,-3.39892 2.7307701,-6.1795 6.1296021,-6.19836 z"
       id="path1" /><path
       style="fill:#a70011;fill-opacity:1;stroke-width:0.127951"
       d="m 81.769449,120.47877 -16.256974,0.0906 c -3.269994,0.0183 -6.340339,1.31217 -8.645442,3.64313 -2.305102,2.33096 -3.5647,5.41564 -3.54646,8.68554 0.01824,3.27009 1.31199,6.34053 3.642949,8.64563 2.33105,2.30519 5.415731,3.56479 8.685816,3.54637 l 16.256794,-0.0906 c 3.269994,-0.0183 6.340523,-1.31199 8.645625,-3.64295 2.305103,-2.33096 3.564613,-5.41573 3.546282,-8.68573 -0.01832,-3.27 -1.311995,-6.34052 -3.642953,-8.64563 -2.330959,-2.30509 -5.415457,-3.56452 -8.685637,-3.54637 z m 0.10277,18.42428 -8.128441,0.0454 -8.128441,0.0452 c -3.398835,0.0191 -6.1795,-2.73077 -6.198459,-6.12969 -0.01899,-3.39874 2.730771,-6.17932 6.129602,-6.19836 l 16.256886,-0.0907 c 3.398831,-0.0189 6.179405,2.73086 6.198455,6.12969 0.01903,3.39901 -2.730593,6.1795 -6.129602,6.19837 z"
       id="path2" /><g
       style="fill:#fd793f;fill-opacity:1"
       id="g4"
       transform="matrix(3.9037682,0,0,3.9037682,25.219011,113.36131)"><path
         d="M 5.900404,10.015618 5.576408,13.103049 C 5.5186786,13.653166 5.026617,14.052252 4.4773577,13.994432 3.9280984,13.936613 3.5296348,13.443782 3.5873642,12.893665 L 4.3098044,6.009371 H 1 C 0.44771525,6.009371 0,5.5609565 0,5.0078091 0,4.4546618 0.44771525,4.0062473 1,4.0062473 h 10 c 0.552285,0 1,0.4484145 1,1.0015618 0,0.5531474 -0.447715,1.0015619 -1,1.0015619 H 7.6901956 l 0.7224402,6.884294 C 8.4703652,13.443782 8.0719016,13.936613 7.5226423,13.994432 6.973383,14.052252 6.4813214,13.653166 6.423592,13.103049 L 6.099596,10.015618 Z M 6,4.0062473 c -1.1045695,0 -2,-0.896829 -2,-2.0031236 C 4,0.89682901 4.8954305,0 6,0 7.1045695,0 8,0.89682901 8,2.0031237 8,3.1094183 7.1045695,4.0062473 6,4.0062473 Z"
         id="path1-0"
         style="fill:#fd793f;fill-opacity:1" /></g></g></svg>
